<svg width="111" height="150" viewBox="0 0 111 150" fill="none" xmlns="http://www.w3.org/2000/svg">
    <g clip-path="url(#clip0)">
        <path opacity="0.7" d="M0.09375 6.71642C0.09375 3.00705 3.10898 -6.95527e-07 6.82844 0L101.622 1.77259e-05C105.341 1.84215e-05 108.356 3.00705 108.356 6.71644V103.81C108.356 107.428 106.603 110.823 103.65 112.924L58.3803 145.125C54.3188 148.014 48.833 147.883 44.9147 144.803L4.37053 112.937C1.66985 110.815 0.09375 107.574 0.09375 104.145V6.71642Z" fill="#6D28FE"/>
        <path opacity="0.95" d="M44.3611 92.0707L24.4199 83.7977V78.6204L44.3611 70.3648V76.5739L32.242 81.2264L44.3611 85.8965V92.0707ZM54.6672 67.9512H58.3152L51.8611 94.4494H48.2482L54.6672 67.9512ZM62.0972 92.0707L82.0382 83.7977V78.6204L62.0972 70.3648V76.5739L74.216 81.2264L62.0972 85.8965V92.0707Z" fill="white"/>
    </g>
    <defs>
        <clipPath id="clip0">
            <rect width="110" height="150" fill="white" transform="translate(0.09375)"/>
        </clipPath>
    </defs>
</svg>
