<svg width="411" height="226" viewBox="0 0 411 226" fill="none" xmlns="http://www.w3.org/2000/svg">
    <rect x="0.09375" y="0.72168" width="410" height="225.004" rx="10" fill="#4A4A4A"/>
    <rect x="10.707" y="16.3242" width="15" height="15" rx="1" fill="#696969"/>
    <rect x="49.6152" y="16.3242" width="6.5203" height="13" rx="1" fill="#696969"/>
    <rect x="107.1" y="16.3242" width="6.5203" height="13" rx="1" fill="#696969"/>
    <rect x="152.375" y="16.3242" width="6.5203" height="13" rx="1" fill="#696969"/>
    <rect x="219.02" y="16.3242" width="6.5203" height="13" rx="1" fill="#696969"/>
    <rect x="231.021" y="16.3242" width="6.5203" height="13" rx="1" fill="#696969"/>
    <rect x="271.938" y="16.3242" width="6.5203" height="13" rx="1" fill="#696969"/>
    <rect x="61.6172" y="16.3242" width="40" height="13" rx="1" fill="#813636"/>
    <rect x="119.102" y="16.3242" width="27.7906" height="13" rx="1" fill="#328715"/>
    <rect x="164.377" y="16.3242" width="49.1592" height="13" rx="1" fill="#834A4A"/>
    <rect x="243.023" y="16.3242" width="23.4308" height="13" rx="1" fill="#234880"/>
    <rect x="283.939" y="16.3242" width="23.4308" height="13" rx="1" fill="#736A1E"/>
    <rect x="312.854" y="16.3242" width="38.0523" height="13" rx="1" fill="#2D1966"/>
    <rect x="356.389" y="16.3242" width="38.0523" height="13" rx="1" fill="#2CA67A"/>
    <rect width="6.5203" height="13" rx="1" transform="matrix(-1 0 0 1 394.441 35.2651)" fill="#696969"/>
    <rect width="6.5203" height="13" rx="1" transform="matrix(-1 0 0 1 336.957 35.2651)" fill="#696969"/>
    <rect width="6.5203" height="13" rx="1" transform="matrix(-1 0 0 1 291.682 35.2651)" fill="#696969"/>
    <rect width="6.5203" height="13" rx="1" transform="matrix(-1 0 0 1 225.037 35.2651)" fill="#696969"/>
    <rect width="6.5203" height="13" rx="1" transform="matrix(-1 0 0 1 213.035 35.2651)" fill="#696969"/>
    <rect width="6.5203" height="13" rx="1" transform="matrix(-1 0 0 1 172.119 35.2651)" fill="#696969"/>
    <rect width="40" height="13" rx="1" transform="matrix(-1 0 0 1 382.439 35.2651)" fill="#813636"/>
    <rect width="27.7906" height="13" rx="1" transform="matrix(-1 0 0 1 324.955 35.2651)" fill="#328715"/>
    <rect width="49.1592" height="13" rx="1" transform="matrix(-1 0 0 1 279.68 35.2651)" fill="#834A4A"/>
    <rect width="23.4308" height="13" rx="1" transform="matrix(-1 0 0 1 201.033 35.2651)" fill="#722380"/>
    <rect width="23.4308" height="13" rx="1" transform="matrix(-1 0 0 1 160.117 35.2651)" fill="#736A1E"/>
    <rect width="38.0523" height="13" rx="1" transform="matrix(-1 0 0 1 131.203 35.2651)" fill="#2D1966"/>
    <rect width="38.0523" height="13" rx="1" transform="matrix(-1 0 0 1 87.668 35.2651)" fill="#2CA67A"/>
    <rect x="49.6152" y="54.2061" width="6.5203" height="13" rx="1" fill="#696969"/>
    <rect x="107.1" y="54.2061" width="6.5203" height="13" rx="1" fill="#696969"/>
    <rect x="152.375" y="54.2061" width="6.5203" height="13" rx="1" fill="#696969"/>
    <rect x="219.02" y="54.2061" width="6.5203" height="13" rx="1" fill="#696969"/>
    <rect x="231.021" y="54.2061" width="6.5203" height="13" rx="1" fill="#696969"/>
    <rect x="271.938" y="54.2061" width="6.5203" height="13" rx="1" fill="#696969"/>
    <rect x="61.6172" y="54.2061" width="40" height="13" rx="1" fill="#813636"/>
    <rect x="119.102" y="54.2061" width="27.7906" height="13" rx="1" fill="#328715"/>
    <rect x="164.377" y="54.2061" width="49.1592" height="13" rx="1" fill="#834A4A"/>
    <rect x="243.023" y="54.2061" width="23.4308" height="13" rx="1" fill="#234880"/>
    <rect x="283.939" y="54.2061" width="23.4308" height="13" rx="1" fill="#736A1E"/>
    <rect x="312.854" y="54.2061" width="38.0523" height="13" rx="1" fill="#2D1966"/>
    <rect x="356.389" y="54.2061" width="38.0523" height="13" rx="1" fill="#2CA67A"/>
    <rect width="6.5203" height="13" rx="1" transform="matrix(-1 0 0 1 394.441 73.147)" fill="#696969"/>
    <rect width="6.5203" height="13" rx="1" transform="matrix(-1 0 0 1 336.957 73.147)" fill="#696969"/>
    <rect width="6.5203" height="13" rx="1" transform="matrix(-1 0 0 1 291.682 73.147)" fill="#696969"/>
    <rect width="6.5203" height="13" rx="1" transform="matrix(-1 0 0 1 225.037 73.147)" fill="#696969"/>
    <rect width="6.5203" height="13" rx="1" transform="matrix(-1 0 0 1 213.035 73.147)" fill="#696969"/>
    <rect width="6.5203" height="13" rx="1" transform="matrix(-1 0 0 1 172.119 73.147)" fill="#696969"/>
    <rect width="40" height="13" rx="1" transform="matrix(-1 0 0 1 382.439 73.147)" fill="#813636"/>
    <rect width="27.7906" height="13" rx="1" transform="matrix(-1 0 0 1 324.955 73.147)" fill="#328715"/>
    <rect width="49.1592" height="13" rx="1" transform="matrix(-1 0 0 1 279.68 73.147)" fill="#834A4A"/>
    <rect width="23.4308" height="13" rx="1" transform="matrix(-1 0 0 1 201.033 73.147)" fill="#234880"/>
    <rect width="23.4308" height="13" rx="1" transform="matrix(-1 0 0 1 160.117 73.147)" fill="#736A1E"/>
    <rect width="38.0523" height="13" rx="1" transform="matrix(-1 0 0 1 131.203 73.147)" fill="#6B54AA"/>
    <rect width="38.0523" height="13" rx="1" transform="matrix(-1 0 0 1 87.668 73.147)" fill="#0D422F"/>
    <rect x="49.6152" y="92.0879" width="6.5203" height="13" rx="1" fill="#696969"/>
    <rect x="107.1" y="92.0879" width="6.5203" height="13" rx="1" fill="#696969"/>
    <rect x="152.375" y="92.0879" width="6.5203" height="13" rx="1" fill="#696969"/>
    <rect x="219.02" y="92.0879" width="6.5203" height="13" rx="1" fill="#696969"/>
    <rect x="231.021" y="92.0879" width="6.5203" height="13" rx="1" fill="#696969"/>
    <rect x="61.6172" y="92.0879" width="40" height="13" rx="1" fill="#813636"/>
    <rect x="119.102" y="92.0879" width="27.7906" height="13" rx="1" fill="#328715"/>
    <rect x="164.377" y="92.0879" width="49.1592" height="13" rx="1" fill="#834A4A"/>
    <rect x="243.023" y="92.0879" width="23.4308" height="13" rx="1" fill="#234880"/>
    <rect width="6.5203" height="13" rx="1" transform="matrix(-1 0 0 1 163.695 111.029)" fill="#696969"/>
    <rect width="6.5203" height="13" rx="1" transform="matrix(-1 0 0 1 97.0508 111.029)" fill="#696969"/>
    <rect width="6.5203" height="13" rx="1" transform="matrix(-1 0 0 1 68.1367 129.696)" fill="#696969"/>
    <rect width="6.5203" height="13" rx="1" transform="matrix(-1 0 0 1 85.0488 111.029)" fill="#696969"/>
    <rect width="6.5203" height="13" rx="1" transform="matrix(-1 0 0 1 56.1348 129.696)" fill="#696969"/>
    <rect width="6.5203" height="13" rx="1" transform="matrix(-1 0 0 1 56.1348 148.363)" fill="#696969"/>
    <rect width="49.1592" height="13" rx="1" transform="matrix(-1 0 0 1 151.693 111.029)" fill="#834A4A"/>
    <rect width="23.4308" height="13" rx="1" transform="matrix(-1 0 0 1 73.0469 111.029)" fill="#234880"/>
    <rect x="10.707" y="67.2061" width="15" height="15" rx="1" fill="#696969"/>
    <rect x="10.707" y="118.255" width="15" height="15" rx="1" fill="#696969"/>
    <rect x="10.707" y="169.137" width="15" height="15" rx="1" fill="#696969"/>
    <rect x="10.707" y="41.7651" width="15" height="15" rx="1" fill="#696969"/>
    <rect x="10.707" y="92.647" width="15" height="15" rx="1" fill="#696969"/>
    <rect x="10.707" y="143.696" width="15" height="15" rx="1" fill="#696969"/>
    <rect x="10.707" y="194.578" width="15" height="15" rx="1" fill="#696969"/>
    <rect x="35.7168" y="11.02" width="3" height="203.862" rx="1.5" fill="#696969"/>
</svg>
