<svg width="91" height="91" viewBox="0 0 91 91" fill="none" xmlns="http://www.w3.org/2000/svg">
    <g clip-path="url(#clip0)">
        <path d="M29.3263 89.8507L26.3038 84.6011C26.0499 84.1602 25.5314 83.9454 25.0401 84.0776L19.1909 85.6524C18.2923 85.8943 17.507 84.9999 17.8631 84.1401L31.6518 55.3379L45.1233 60.9181L31.3347 89.7204C30.9785 90.5801 29.7906 90.6571 29.3263 89.8507Z" fill="#E1E6E9"/>
        <path d="M60.9199 89.8505L63.9424 84.6009C64.1963 84.16 64.7148 83.9452 65.206 84.0774L71.0553 85.6522C71.9539 85.8941 72.7392 84.9997 72.3831 84.1399L58.5946 55.3379L45.123 60.9181L58.9117 89.7202C59.2678 90.5799 60.4556 90.6569 60.9199 89.8505Z" fill="#E1E6E9"/>
        <path d="M78.126 37.2C74.4437 33.165 73.599 27.2904 75.9954 22.3816C76.678 20.9832 75.9137 19.3097 74.4098 18.9099C69.1306 17.5064 65.244 13.0209 64.606 7.59566C64.4242 6.05028 62.8765 5.05552 61.3951 5.53214C56.1951 7.20552 50.5006 5.53349 47.0306 1.3144C46.0422 0.112649 44.2024 0.112649 43.214 1.3144C39.7442 5.53349 34.0495 7.20552 28.8495 5.53214C27.3683 5.05552 25.8205 6.05009 25.6386 7.59566C25.0006 13.0209 21.114 17.5064 15.8348 18.9099C14.3309 19.3097 13.5666 20.9834 14.2492 22.3816C16.6456 27.2906 15.801 33.165 12.1186 37.2C11.0697 38.3495 11.3316 40.1706 12.6618 40.9778C17.3317 43.812 19.7971 49.2106 18.881 54.5958C18.62 56.1299 19.8248 57.5204 21.3804 57.4804C26.8412 57.3399 31.834 60.5485 33.9746 65.5742C34.5844 67.0058 36.3498 67.5241 37.6367 66.6495C42.1547 63.5789 48.0896 63.5789 52.6075 66.6495C53.8946 67.5241 55.6598 67.0058 56.2697 65.5742C58.4104 60.5485 63.4031 57.3397 68.8641 57.4804C70.4196 57.5204 71.6245 56.1299 71.3635 54.5958C70.4471 49.2106 72.9127 43.812 77.5825 40.9778C78.913 40.1706 79.1747 38.3495 78.126 37.2Z" fill="#FCD462"/>
        <path d="M52.3383 58.9576C50.0517 58.0741 47.6134 57.6169 45.1227 57.6169C42.6317 57.6169 40.1934 58.0743 37.907 58.9576C34.9763 54.9436 30.6513 52.1586 25.773 51.1569C25.4876 46.1758 23.3549 41.5056 19.7793 38.0272C22.2297 33.6842 22.9602 28.6049 21.8326 23.7469C26.2443 21.4165 29.6064 17.5351 31.2834 12.8355C31.8294 12.8805 32.3783 12.9034 32.9282 12.903C37.3973 12.903 41.6592 11.4329 45.1228 8.77344C48.5864 11.4335 52.849 12.9035 57.3175 12.903C57.8674 12.903 58.4163 12.8805 58.9623 12.8355C60.6393 17.5353 64.0014 21.4167 68.4131 23.7469C67.2859 28.6054 68.016 33.6842 70.4664 38.0272C66.8906 41.5056 64.7579 46.1762 64.4726 51.1569C59.5934 52.1586 55.2684 54.9436 52.3383 58.9576Z" fill="#27A2DB"/>
        <path d="M60.0592 24.2783C58.9985 22.9257 57.0413 22.6895 55.6877 23.7514L38.2759 37.4161L34.7867 34.0857C33.5421 32.8978 31.5718 32.9445 30.3845 34.1885C29.1975 35.4327 29.2433 37.4034 30.4873 38.5907L35.927 43.7827C36.5255 44.3539 37.3004 44.6437 38.0772 44.6437C38.7537 44.6437 39.4323 44.4242 39.9989 43.9793L59.5318 28.6498C60.8846 27.5882 61.1208 25.631 60.0592 24.2783Z" fill="#EBF0F3"/>
    </g>
    <defs>
        <clipPath id="clip0">
            <rect width="90" height="90" fill="white" transform="translate(0.123047 0.413086)"/>
        </clipPath>
    </defs>
</svg>
