<svg width="91" height="91" viewBox="0 0 91 91" fill="none" xmlns="http://www.w3.org/2000/svg">
    <g clip-path="url(#clip0)">
        <path d="M75.3089 33.6392L45.1261 7.40625L14.645 33.8735L13.6816 36.4279V89.0956H76.5705V36.4279L75.3089 33.6392Z" fill="#90D8F9"/>
        <path d="M20.8255 43.6287C20.8255 40.1828 22.3514 37.021 24.8144 34.8824L50.7891 12.3281L45.1263 7.40625L14.645 33.8735L13.6816 36.4281V89.0956H20.8255V43.6287Z" fill="#75CEF9"/>
        <path d="M53.3089 62.0881C53.0438 61.9855 52.7916 61.8879 52.5542 61.7958C50.9985 64.1833 48.3092 65.7678 45.2533 65.7678C41.8605 65.7678 39.1933 64.1225 37.6782 61.7705L27.3312 65.8117C25.2882 66.6525 22.5527 69.2979 22.5527 73.2233V78.8202H30.5781V89.0963H48.3405H54.1514L56.7151 87.2075V64.2393L53.3089 62.0881Z" fill="#DD636E"/>
        <path d="M26.6533 71.0297C26.6533 68.5632 27.7688 66.5834 28.9412 65.1826L27.3312 65.8113C25.2882 66.6521 22.5527 69.2974 22.5527 73.2229V78.8198H26.6533C26.6533 75.612 26.6533 72.6899 26.6533 71.0297Z" fill="#DA4A54"/>
        <path d="M75.9966 6.07422H68.4868L67.7363 6.66183V20.5415L68.0915 21.6647L75.9526 28.6914L76.5703 28.2624V6.66183L75.9966 6.07422Z" fill="#FFE07D"/>
        <path d="M72.1533 6.07422H68.4868L67.7363 6.66183V20.5415L68.0915 21.6647L72.1533 25.2952V6.07422Z" fill="#FFC250"/>
        <path d="M78.2372 1.79004H66.0701C65.4846 1.79004 65.0098 2.26469 65.0098 2.85037V5.60255C65.0098 6.18805 65.4844 6.66288 66.0701 6.66288H78.2372C78.8227 6.66288 79.2975 6.18822 79.2975 5.60255V2.85019C79.2975 2.26469 78.8228 1.79004 78.2372 1.79004Z" fill="#FFF0AF"/>
        <path d="M71.3338 5.60157V2.84939C71.3338 2.26389 71.8084 1.78906 72.3939 1.78906H66.0699C65.4844 1.78906 65.0098 2.26372 65.0098 2.84939V5.60157C65.0098 6.18707 65.4844 6.6619 66.0699 6.6619H72.3939C71.8086 6.6619 71.3338 6.18707 71.3338 5.60157Z" fill="#FFE07D"/>
        <path d="M83.8979 34.6665L47.15 2.54945C45.9913 1.5369 44.2626 1.5369 43.1039 2.54945L6.35587 34.6665C5.07754 35.7838 4.94684 37.726 6.06426 39.0043C7.18168 40.2828 9.12386 40.4131 10.402 39.2961L44.6406 9.37202C44.9191 9.12854 45.3347 9.12854 45.6133 9.37202L79.8519 39.2959C81.1304 40.413 83.0723 40.2828 84.1897 39.0041C85.3069 37.726 85.1764 35.7838 83.8979 34.6665Z" fill="#DD636E"/>
        <path d="M8.99088 36.4222L45.7387 4.30515C46.479 3.65816 47.4519 3.42663 48.3604 3.60652L47.1499 2.54847C45.9912 1.53593 44.2623 1.53593 43.1037 2.54847L6.35587 34.6656C5.07754 35.7828 4.94684 37.725 6.06426 39.0033C6.63799 39.6596 7.42902 40.0111 8.23604 40.0487C7.66354 38.8377 7.93213 37.3476 8.99088 36.4222Z" fill="#DA4A54"/>
        <path d="M22.5527 78.6436H30.7538V89.0952H22.5527V78.6436Z" fill="#FFCEBE"/>
        <path d="M26.6533 78.6436H22.5527V89.0952H26.6533C26.6533 86.1284 26.6533 82.1984 26.6533 78.6436Z" fill="#FFB1A0"/>
        <path d="M50.0123 60.2078L50.0113 57.056C48.6214 57.8903 46.9963 58.3712 45.2607 58.3712C43.3456 58.3712 41.6488 57.8766 40.2359 57.04V60.2026C40.2359 60.5666 40.0609 60.7811 39.8594 60.9177L37.5879 61.805C39.0863 64.232 41.7927 65.9429 45.2528 65.9429C48.3688 65.9429 51.1066 64.2977 52.647 61.8314C51.5197 61.3948 50.7213 61.0855 50.5769 61.0296C50.2382 60.8986 50.0132 60.5727 50.0123 60.2078Z" fill="#FFCEBE"/>
        <path d="M45.1267 58.3691C43.2665 58.3465 41.6156 57.8569 40.2359 57.04V60.2026C40.2359 60.5666 40.0609 60.7811 39.8594 60.9177L37.5879 61.805C39.0679 64.2023 41.7271 65.8998 45.1268 65.9409V58.3691H45.1267Z" fill="#FFB1A0"/>
        <path d="M79.3549 60.6934H55.9583C54.1821 60.6934 52.7422 62.1333 52.7422 63.9095V80.7846C52.7422 82.561 54.1821 84.0007 55.9583 84.0007L56.4655 84.5725H78.8384L79.3551 84.0007C81.1312 84.0007 82.5712 82.5608 82.5712 80.7846V63.9095C82.571 62.1333 81.1312 60.6934 79.3549 60.6934Z" fill="#D3EFFB"/>
        <path d="M61.6575 80.7846V63.9095C61.6575 62.1333 63.0974 60.6934 64.8736 60.6934H55.9583C54.1821 60.6934 52.7422 62.1333 52.7422 63.9095V80.7846C52.7422 82.561 54.1821 84.0007 55.9583 84.0007L56.4655 84.5725H65.3808L64.8736 84.0007C63.0974 84.0009 61.6575 82.561 61.6575 80.7846Z" fill="#B1E4F9"/>
        <path d="M83.6422 84.001H51.6702C50.9484 84.001 50.3633 84.7374 50.3633 85.6459C50.3633 88.279 52.0593 90.4135 54.1514 90.4135H81.1611C83.2531 90.4135 84.9492 88.279 84.9492 85.6459C84.9492 84.7374 84.364 84.001 83.6422 84.001Z" fill="#E4F6FF"/>
        <path d="M59.2786 85.6459C59.2786 84.7374 59.8637 84.001 60.5856 84.001H51.6702C50.9484 84.001 50.3633 84.7374 50.3633 85.6459C50.3633 88.279 52.0594 90.4135 54.1514 90.4135H63.0667C60.9747 90.4135 59.2786 88.279 59.2786 85.6459Z" fill="#D3EFFB"/>
        <path d="M51.445 40.2314C51.445 40.061 51.217 40.0025 51.1367 40.1527C50.1008 42.0903 48.059 43.4092 45.7082 43.4092H35.7324V49.4627C35.7324 54.3023 39.5246 58.7227 45.2604 58.7227C50.3664 58.7227 54.5206 54.5686 54.5206 49.4627V43.4039C52.8201 43.3491 51.445 41.9447 51.445 40.2314Z" fill="#FFDECF"/>
        <path d="M41.3954 49.4627V43.6627H41.3571V43.4092H35.7324V49.4627C35.7324 54.3023 39.5246 58.7226 45.2604 58.7226C46.215 58.7226 47.1362 58.5772 48.0035 58.3077C43.9366 57.1021 41.3954 53.4236 41.3954 49.4627Z" fill="#FFCEBE"/>
        <path d="M53.4003 32.2913C52.5678 32.3552 51.8038 31.8317 51.6436 31.0124C51.3738 29.6324 50.6904 28.2627 48.0214 28.2627H38.761C35.3624 28.2627 32.6074 31.0179 32.6074 34.4163V41.1699C32.6074 42.6008 33.7675 43.761 35.1985 43.761H45.7085C48.0593 43.761 50.1009 42.4422 51.137 40.5044C51.2173 40.3542 51.4453 40.4129 51.4453 40.5831C51.4453 42.3308 52.8752 43.7608 54.6229 43.7608C55.539 43.7608 56.2886 43.0112 56.2886 42.0951V35.0475C56.2886 33.3873 54.8401 32.1804 53.4003 32.2913Z" fill="#B06C6C"/>
        <path d="M37.8189 41.1691V34.4155C37.8189 31.0169 40.5741 28.2617 43.9728 28.2617H38.7612C35.3626 28.2617 32.6074 31.0169 32.6074 34.4155V41.1691C32.6074 42.6 33.7675 43.7601 35.1985 43.7601H40.41C38.9791 43.7601 37.8189 42.6 37.8189 41.1691Z" fill="#9D5E5E"/>
        <path d="M11.2772 40.2284L12.3731 39.2707V87.7196H9.91371C9.18592 87.7196 8.59621 88.3095 8.59621 89.0371C8.59621 89.7647 9.18592 90.3546 9.91371 90.3546H63.6491C64.3769 90.3546 64.9666 89.7647 64.9666 89.0371C64.9666 88.3095 64.3769 87.7196 63.6491 87.7196C61.683 87.7196 56.3721 87.7196 54.1594 87.7196C52.8011 87.7196 51.6944 86.6174 51.6888 85.2595C83.8602 85.2595 83.2035 85.2492 83.6399 85.249C83.6399 86.6113 82.5316 87.7196 81.1695 87.7196H69.7977C69.0699 87.7196 68.4801 88.3095 68.4801 89.0371C68.4801 89.7647 69.0699 90.3546 69.7977 90.3546H81.1695C83.9845 90.3546 86.2749 88.0642 86.2749 85.249C86.2749 83.9122 85.2652 82.6245 83.4781 82.6245C83.7458 82.0466 83.8964 81.4036 83.8964 80.7259V63.8508C83.8964 61.351 81.8627 59.3172 79.3627 59.3172H77.897V52.3073C77.897 51.5797 77.3073 50.9898 76.5795 50.9898C75.8517 50.9898 75.262 51.5797 75.262 52.3073V59.3172H55.966C54.8071 59.3172 53.7489 59.7547 52.9466 60.4727L51.3382 59.8498L51.3378 58.0597C54.0617 56.1442 55.8467 52.9798 55.8467 49.4042V44.758C56.8868 44.2914 57.6142 43.2482 57.6142 42.0364V34.9888C57.6142 33.8405 57.148 32.7763 56.3013 31.9925C55.4751 31.2274 54.3853 30.8364 53.3074 30.9188C53.15 30.9307 52.9757 30.8599 52.9448 30.7006C52.4498 28.1696 50.7961 26.8863 48.0297 26.8863H38.7694C34.6498 26.8863 31.2982 30.2379 31.2982 34.3575V41.111C31.2982 42.998 32.6424 44.5769 34.4237 44.9407V49.4042C34.4237 52.681 36.0361 56.0273 38.9269 58.055V59.8122L26.8598 64.5252C26.8524 64.5282 26.8451 64.5311 26.8377 64.5341C24.1433 65.6431 21.2432 68.8167 21.2432 73.1641V87.7196H15.0081V36.9677L45.135 10.6373L75.262 36.9677V46.1588C75.262 46.8864 75.8517 47.4763 76.5795 47.4763C77.3073 47.4763 77.897 46.8864 77.897 46.1588V39.2707L78.993 40.2286C80.8166 41.8219 83.5965 41.635 85.1894 39.8118C86.787 37.9845 86.6009 35.2126 84.7729 33.6151L77.8968 27.6055V7.92076H78.2458C79.5568 7.92076 80.6235 6.8541 80.6235 5.54292V2.79092C80.6237 1.47974 79.557 0.413086 78.246 0.413086H66.0788C64.7678 0.413086 63.7011 1.47974 63.7011 2.79092V5.5431C63.7011 6.8541 64.7678 7.92093 66.0788 7.92093H66.4278V17.5819L48.0251 1.49801C46.3775 0.0582379 43.8925 0.0580624 42.2449 1.49801L5.49691 33.6151C3.66927 35.2123 3.48253 37.9839 5.0804 39.8119C6.67493 41.6364 9.45505 41.821 11.2772 40.2284ZM54.0673 63.8508C54.0673 62.814 54.9114 61.9522 55.9661 61.9522H79.3629C80.4097 61.9522 81.2615 62.804 81.2615 63.8508V80.7259C81.2615 81.7727 80.4097 82.6245 79.3629 82.6245H55.9658C54.919 82.6245 54.0672 81.7729 54.0672 80.7259V63.8508H54.0673ZM35.2066 42.3846C34.5043 42.3846 33.9331 41.8133 33.9331 41.111V34.3575C33.9331 31.6908 36.1025 29.5213 38.7692 29.5213H48.0295C49.8819 29.5213 50.1719 30.2518 50.3588 31.2063C50.6424 32.6565 51.9969 33.6623 53.5096 33.5461C53.8511 33.5187 54.2258 33.6616 54.5111 33.9258C54.6859 34.0878 54.9792 34.4413 54.9792 34.989V42.0366C54.9792 42.8097 52.9399 42.2788 52.7802 40.7084C52.7599 40.5013 52.8032 40.2044 52.59 39.8139C52.0261 38.7809 50.5359 38.7906 49.9831 39.8246C49.1362 41.4084 47.4988 42.3848 45.7166 42.3848C43.9029 42.3846 36.3369 42.3846 35.2066 42.3846ZM37.0585 49.4042V45.0196H45.7166C47.626 45.0196 49.4742 44.2839 50.8597 42.9681C51.4098 43.8143 52.2369 44.4645 53.2115 44.7896V49.4042C53.2115 53.8017 49.6265 57.3467 45.2689 57.3467C40.3634 57.3467 37.0585 53.537 37.0585 49.4042ZM50.109 62.1997C50.1545 62.2172 50.4807 62.3436 50.5262 62.3611C47.4489 65.4985 42.4396 65.1238 39.7146 62.3334L40.3472 62.0864C40.8273 61.8989 41.5618 61.2368 41.5618 60.144V59.3865C43.7107 60.115 46.3144 60.2292 48.7026 59.4076L48.703 60.1467V60.153C48.7056 61.0672 49.2583 61.8707 50.109 62.1997ZM23.878 73.1641C23.878 69.8238 26.2374 67.6357 27.83 66.9752L37.11 63.3508C40.5181 67.7299 47.0877 68.4868 51.4323 65.0811V80.7261C51.4323 81.3818 51.5795 82.041 51.8492 82.6247C50.0558 82.6247 49.0538 83.9232 49.0538 85.2492C49.0538 86.1366 49.2952 87.0113 49.6923 87.7197H32.0791C32.0791 86.2868 32.0791 74.7414 32.0791 73.1135C32.0791 72.3859 31.4893 71.796 30.7616 71.796C30.0338 71.796 29.4441 72.3859 29.4441 73.1135V77.2681H23.878V73.1641ZM23.878 79.9029H29.4441V87.7196H23.878V79.9029ZM66.3361 5.28575V3.0481H77.9887V5.28575C76.6025 5.28575 67.6784 5.28575 66.3361 5.28575ZM75.262 7.92076V25.3025L69.063 19.8848V7.92076H75.262ZM7.23092 35.5991L43.9788 3.48217C44.6379 2.90616 45.6318 2.90616 46.2909 3.48217C47.9281 4.91298 81.4433 34.2046 83.0387 35.5993C83.7699 36.2385 83.8444 37.3468 83.2053 38.0779C82.5681 38.8069 81.4558 38.8821 80.7266 38.2446C79.2851 36.9847 47.9339 9.58433 46.4883 8.32075C45.7177 7.64707 44.5537 7.64549 43.7817 8.32075L9.54323 38.2444C8.81386 38.8821 7.70188 38.8069 7.06439 38.0777C6.42654 37.3477 6.49856 36.2394 7.23092 35.5991Z" fill="black"/>
        <path d="M66.7238 73.6057H68.606C69.3338 73.6057 69.9235 73.0158 69.9235 72.2882C69.9235 71.5606 69.3338 70.9707 68.606 70.9707H66.7238C65.996 70.9707 65.4062 71.5606 65.4062 72.2882C65.4062 73.0158 65.9961 73.6057 66.7238 73.6057Z" fill="black"/>
    </g>
    <defs>
        <clipPath id="clip0">
            <rect width="90" height="90" fill="white" transform="translate(0.134766 0.413086)"/>
        </clipPath>
    </defs>
</svg>
