<svg width="91" height="91" viewBox="0 0 91 91" fill="none" xmlns="http://www.w3.org/2000/svg">
    <g clip-path="url(#clip0)">
        <path d="M66.1934 22.9131H64.6451C60.8862 22.9131 59.0046 18.3695 61.6624 15.7117L62.7565 14.6176C63.8548 13.5193 63.8548 11.739 62.7565 10.6407L58.7796 6.66387C58.2298 6.11402 57.5112 5.8398 56.7912 5.8398H51.1662C50.4462 5.8398 49.7262 6.11402 49.1777 6.66387L48.0837 7.75793C48.0274 7.81418 47.9655 7.85637 47.9079 7.9098C47.0684 7.1659 46.5059 6.08871 46.5059 4.77246V3.22559C46.5059 1.67168 45.2473 0.413086 43.6934 0.413086H32.4434C30.8895 0.413086 29.6309 1.67168 29.6309 3.22559V4.77246C29.6309 6.0873 29.0684 7.1659 28.2302 7.90699C28.1726 7.85496 28.1107 7.81137 28.0545 7.75512L26.959 6.66246C26.4091 6.11262 25.6905 5.8384 24.9705 5.8384H19.3455C18.6255 5.8384 17.9055 6.11262 17.3571 6.66246L13.3802 10.6393C12.282 11.7376 12.282 13.5179 13.3802 14.6162L14.4743 15.7103C17.1321 18.3695 15.2491 22.9131 11.4916 22.9131H9.94336C8.38945 22.9131 7.13086 24.1717 7.13086 25.7256V31.3506C7.13086 32.9045 8.38945 34.1631 9.94336 34.1631H11.4916C15.2505 34.1631 17.1321 38.7067 14.4743 41.3645L13.3802 42.4586C12.282 43.5568 12.282 45.3372 13.3802 46.4354L17.3571 50.4123C17.907 50.9622 18.6255 51.2364 19.3455 51.2364H24.9705C25.6905 51.2364 26.4105 50.9622 26.959 50.4123L28.053 49.3182C28.1093 49.262 28.1712 49.2198 28.2288 49.1664C29.0684 49.9103 29.6309 50.9875 29.6309 52.3023V53.8506C29.6309 55.4045 30.8895 56.6631 32.4434 56.6631H43.6934C45.2473 56.6631 46.5059 55.4045 46.5059 53.8506V52.3023C46.5059 50.9875 47.0684 49.9089 47.9065 49.1678C47.9641 49.2198 48.026 49.2634 48.0823 49.3196L49.1763 50.4137C49.7262 50.9636 50.4448 51.2378 51.1648 51.2378H56.7898C57.5098 51.2378 58.2298 50.9636 58.7782 50.4137L62.7551 46.4368C63.8534 45.3386 63.8534 43.5582 62.7551 42.46L61.661 41.3659C59.0046 38.7067 60.8876 34.1631 64.6451 34.1631H66.1934C67.7473 34.1631 69.0059 32.9045 69.0059 31.3506V25.7256C69.0059 24.1717 67.7473 22.9131 66.1934 22.9131ZM26.8184 28.5381C26.8184 21.7346 31.6502 16.0604 38.0684 14.7582C44.4865 16.0618 49.3184 21.7346 49.3184 28.5381C49.3184 35.3415 44.4865 41.0157 38.0684 42.3179C31.6502 41.0157 26.8184 35.3415 26.8184 28.5381Z" fill="#5C76B2"/>
        <path d="M60.5684 22.9131H59.0201C55.2612 22.9131 53.3796 18.3695 56.0374 15.7117L57.1315 14.6176C58.2298 13.5193 58.2298 11.739 57.1315 10.6407L53.1546 6.66387C52.0563 5.56559 50.276 5.56559 49.1777 6.66387L48.0837 7.75793C45.4245 10.4143 40.8809 8.53137 40.8809 4.77246V3.22559C40.8809 1.67168 39.6223 0.413086 38.0684 0.413086H32.4434C30.8895 0.413086 29.6309 1.67168 29.6309 3.22559V4.77246C29.6309 8.53137 25.0873 10.4129 22.4295 7.75512L21.334 6.66246C20.2357 5.56418 18.4554 5.56418 17.3571 6.66246L13.3802 10.6393C12.282 11.7376 12.282 13.5179 13.3802 14.6162L14.4743 15.7103C17.1321 18.3695 15.2491 22.9131 11.4916 22.9131H9.94336C8.38945 22.9131 7.13086 24.1717 7.13086 25.7256V31.3506C7.13086 32.9045 8.38945 34.1631 9.94336 34.1631H11.4916C15.2505 34.1631 17.1321 38.7067 14.4743 41.3645L13.3802 42.4586C12.282 43.5568 12.282 45.3372 13.3802 46.4354L17.3571 50.4123C18.4554 51.5106 20.2357 51.5106 21.334 50.4123L22.428 49.3182C25.0859 46.6604 29.6295 48.5434 29.6295 52.3009V53.8506C29.6295 55.4045 30.888 56.6631 32.442 56.6631H38.067C39.6209 56.6631 40.8795 55.4045 40.8795 53.8506V52.3023C40.8795 48.5434 45.423 46.6618 48.0809 49.3196L49.1749 50.4137C50.2732 51.512 52.0535 51.512 53.1518 50.4137L57.1287 46.4368C58.227 45.3386 58.227 43.5582 57.1287 42.46L56.0346 41.3659C53.3796 38.7067 55.2626 34.1631 59.0201 34.1631H60.5684C62.1223 34.1631 63.3809 32.9045 63.3809 31.3506V25.7256C63.3809 24.1717 62.1223 22.9131 60.5684 22.9131ZM35.2559 42.6006C27.4891 42.6006 21.1934 36.3048 21.1934 28.5381C21.1934 20.7714 27.4891 14.4756 35.2559 14.4756C43.0226 14.4756 49.3184 20.7714 49.3184 28.5381C49.3184 36.3048 43.0226 42.6006 35.2559 42.6006Z" fill="#6FA4D8"/>
        <path d="M70.4121 67.21H69.9298C67.4238 67.21 66.1695 64.1809 67.9413 62.409L68.283 62.0673C68.8329 61.5175 68.8329 60.6273 68.283 60.0789L66.2946 58.0904C66.0204 57.8162 65.6604 57.6784 65.3004 57.6784H59.6754C59.6009 57.6784 59.5249 57.6882 59.4518 57.6995C59.2676 57.3311 59.1621 56.9092 59.1621 56.4423V55.96C59.1621 55.1837 58.5321 54.5537 57.7559 54.5537H49.3184C48.5421 54.5537 47.9121 55.1837 47.9121 55.96V56.4423C47.9121 56.9092 47.8066 57.3311 47.6238 57.6995C47.5493 57.6882 47.4748 57.6784 47.4002 57.6784H41.7752C41.4152 57.6784 41.0552 57.8162 40.781 58.0904L38.7926 60.0789C38.2427 60.6287 38.2427 61.5189 38.7926 62.0673L39.1343 62.409C40.9062 64.1809 39.6518 67.21 37.1459 67.21H36.6621C35.8859 67.21 35.2559 67.84 35.2559 68.6162V71.4287C35.2559 72.205 35.8859 72.835 36.6621 72.835H37.1445C39.6504 72.835 40.9048 75.864 39.1329 77.6359L38.7912 77.9776C38.2413 78.5275 38.2413 79.4176 38.7912 79.9661L40.7796 81.9545C41.0538 82.2287 41.4138 82.3665 41.7738 82.3665H47.3988C47.4734 82.3665 47.5493 82.3567 47.6224 82.3454C47.8066 82.7139 47.9121 83.1357 47.9121 83.6026V84.085C47.9121 84.8612 48.5421 85.4912 49.3184 85.4912H57.7559C58.5321 85.4912 59.1621 84.8612 59.1621 84.085V83.6026C59.1621 83.1357 59.2676 82.7139 59.4504 82.3454C59.5249 82.3567 59.5995 82.3665 59.674 82.3665H65.299C65.659 82.3665 66.019 82.2287 66.2932 81.9545L68.2816 79.9661C68.8315 79.4162 68.8315 78.5261 68.2816 77.9776L67.9399 77.6359C66.168 75.864 67.4224 72.835 69.9284 72.835H70.4121C71.1884 72.835 71.8184 72.205 71.8184 71.4287V68.6162C71.8184 67.84 71.1884 67.21 70.4121 67.21ZM53.5371 77.2211C50.6585 76.0946 48.6152 73.3004 48.6152 70.0225C48.6152 66.7445 50.6585 63.9489 53.5371 62.8239C56.4157 63.9503 58.459 66.7445 58.459 70.0225C58.459 73.3004 56.4157 76.0961 53.5371 77.2211Z" fill="#F68820"/>
        <path d="M64.7871 67.21H64.3048C61.7988 67.21 60.5445 64.1809 62.3163 62.409L62.658 62.0673C63.2079 61.5175 63.2079 60.6273 62.658 60.0789L60.6696 58.0904C60.1198 57.5406 59.2296 57.5406 58.6812 58.0904L58.3395 58.4321C56.5662 60.2026 53.5371 58.9482 53.5371 56.4423V55.96C53.5371 55.1837 52.9071 54.5537 52.1309 54.5537H49.3184C48.5421 54.5537 47.9121 55.1837 47.9121 55.96V56.4423C47.9121 58.9482 44.883 60.2026 43.1112 58.4307L42.7695 58.089C42.2196 57.5392 41.3295 57.5392 40.781 58.089L38.7926 60.0775C38.2427 60.6273 38.2427 61.5175 38.7926 62.0659L39.1343 62.4076C40.9062 64.1795 39.6518 67.2086 37.1459 67.2086H36.6621C35.8859 67.2086 35.2559 67.8386 35.2559 68.6148V71.4273C35.2559 72.2036 35.8859 72.8336 36.6621 72.8336H37.1445C39.6504 72.8336 40.9048 75.8626 39.1329 77.6345L38.7912 77.9762C38.2413 78.5261 38.2413 79.4162 38.7912 79.9646L40.7796 81.9531C41.3295 82.5029 42.2196 82.5029 42.768 81.9531L43.1098 81.6114C44.8816 79.8395 47.9107 81.0939 47.9107 83.5998V84.085C47.9107 84.8612 48.5407 85.4912 49.317 85.4912H52.1295C52.9057 85.4912 53.5357 84.8612 53.5357 84.085V83.6026C53.5357 81.0967 56.5648 79.8423 58.3366 81.6142L58.6784 81.9559C59.2282 82.5057 60.1184 82.5057 60.6668 81.9559L62.6552 79.9675C63.2051 79.4176 63.2051 78.5275 62.6552 77.979L62.3135 77.6373C60.5416 75.8654 61.796 72.8364 64.302 72.8364H64.7871C65.5634 72.8364 66.1934 72.2064 66.1934 71.4301V68.6176C66.1934 67.84 65.5634 67.21 64.7871 67.21ZM50.7246 77.7568C46.4524 77.7568 42.9902 74.2946 42.9902 70.0225C42.9902 65.7503 46.4524 62.2881 50.7246 62.2881C54.9968 62.2881 58.459 65.7503 58.459 70.0225C58.459 74.2946 54.9968 77.7568 50.7246 77.7568Z" fill="#FBBE18"/>
        <path d="M24.0059 28.5381H18.3809C9.06164 28.5381 1.50586 36.0939 1.50586 45.4131C1.50586 54.7323 9.06164 62.2881 18.3809 62.2881H24.0059C33.3251 62.2881 40.8809 54.7323 40.8809 45.4131C40.8809 36.0939 33.3251 28.5381 24.0059 28.5381Z" fill="#353744"/>
        <path d="M18.3809 87.6006H24.0059V65.1006H18.3809C17.6046 65.1006 16.9746 65.7306 16.9746 66.5068V86.1943C16.9746 86.9706 17.6046 87.6006 18.3809 87.6006Z" fill="#55525B"/>
        <path d="M21.1934 87.6006H24.0059C24.7821 87.6006 25.4121 86.9706 25.4121 86.1943V66.5068C25.4121 65.7306 24.7821 65.1006 24.0059 65.1006H21.1934V87.6006Z" fill="#353744"/>
        <path d="M18.3809 62.2881C27.7007 62.2881 35.2559 54.7329 35.2559 45.4131C35.2559 36.0933 27.7007 28.5381 18.3809 28.5381C9.06105 28.5381 1.50586 36.0933 1.50586 45.4131C1.50586 54.7329 9.06105 62.2881 18.3809 62.2881Z" fill="#55525B"/>
        <path d="M18.3809 56.6631C24.5941 56.6631 29.6309 51.6263 29.6309 45.4131C29.6309 39.1999 24.5941 34.1631 18.3809 34.1631C12.1677 34.1631 7.13086 39.1999 7.13086 45.4131C7.13086 51.6263 12.1677 56.6631 18.3809 56.6631Z" fill="#DBDEE3"/>
        <path d="M18.3809 62.2881H24.0059V65.1006H18.3809V62.2881Z" fill="#DBDEE3"/>
        <path d="M21.1934 62.2881H24.0059V65.1006H21.1934V62.2881Z" fill="#B3B4B6"/>
        <path d="M18.3809 62.2881H21.1934V63.6943H18.3809V62.2881Z" fill="#B3B4B6"/>
        <path d="M21.1934 90.4131C19.6395 90.4131 18.3809 89.1545 18.3809 87.6006H24.0059C24.0059 89.1545 22.7473 90.4131 21.1934 90.4131Z" fill="#DBDEE3"/>
        <path d="M21.1934 90.4131V87.6006H24.0059C24.0059 89.1545 22.7473 90.4131 21.1934 90.4131Z" fill="#B3B4B6"/>
        <path d="M87.2871 45.4134H87.1859C85.0202 45.4134 83.6674 43.0691 84.7502 41.1946L84.8009 41.1074C85.189 40.4352 84.9584 39.5746 84.2862 39.1865L81.8505 37.7802C81.6284 37.6523 81.3879 37.5974 81.1488 37.5974V37.5918H78.3363V37.5974C77.8498 37.5974 77.3773 37.8435 77.1171 38.2949L77.0665 38.3821C76.8035 38.8377 76.4449 39.1795 76.0371 39.4129C75.6293 39.178 75.2707 38.8363 75.0077 38.3821L74.9571 38.2949C74.697 37.8435 74.2245 37.5974 73.7379 37.5974V37.5918H70.9254V37.5974C70.6863 37.5974 70.4445 37.6523 70.2237 37.7802L67.788 39.1865C67.1159 39.5746 66.8852 40.4352 67.2734 41.1074L67.324 41.1946C68.4068 43.0691 67.054 45.4134 64.8884 45.4134H64.7871C64.0109 45.4134 63.3809 46.0434 63.3809 46.8196V49.6321C63.3809 50.4084 64.0109 51.0384 64.7871 51.0384H64.8884C67.054 51.0384 68.4068 53.3826 67.324 55.2571L67.2734 55.3443C66.8852 56.0165 67.1159 56.8771 67.788 57.2652L70.2237 58.6715C70.4459 58.7995 70.6863 58.8543 70.9254 58.8543V58.8599H73.7379V58.8543C74.2245 58.8543 74.697 58.6082 74.9571 58.1568L75.0077 58.0696C75.2707 57.614 75.6293 57.2723 76.0371 57.0388C76.4449 57.2737 76.8035 57.6154 77.0665 58.0696L77.1171 58.1568C77.3773 58.6082 77.8498 58.8543 78.3363 58.8543V58.8599H81.1488V58.8543C81.3879 58.8543 81.6298 58.7995 81.8505 58.6715L84.2862 57.2652C84.9584 56.8771 85.189 56.0165 84.8009 55.3443L84.7502 55.2571C83.6674 53.3826 85.0202 51.0384 87.1859 51.0384H87.2871C88.0634 51.0384 88.6934 50.4084 88.6934 49.6321V46.8196C88.6934 46.0434 88.0634 45.4134 87.2871 45.4134ZM73.2246 48.2259C73.2246 46.3893 74.4002 44.8326 76.0371 44.2518C77.674 44.8312 78.8496 46.3893 78.8496 48.2259C78.8496 50.0624 77.674 51.6191 76.0371 52.1999C74.4002 51.6191 73.2246 50.0624 73.2246 48.2259Z" fill="#5C76B2"/>
        <path d="M84.4746 45.4134H84.3734C82.2077 45.4134 80.8549 43.0692 81.9377 41.1946L81.9884 41.1074C82.3765 40.4353 82.1459 39.5746 81.4737 39.1865L79.038 37.7803C78.3659 37.3921 77.5052 37.6228 77.1171 38.295L77.0665 38.3821C75.9837 40.2567 73.278 40.2567 72.1952 38.3821L72.1446 38.295C71.7565 37.6228 70.8959 37.3921 70.2237 37.7803L67.788 39.1865C67.1159 39.5746 66.8852 40.4353 67.2734 41.1074L67.324 41.1946C68.4068 43.0692 67.054 45.4134 64.8884 45.4134H64.7871C64.0109 45.4134 63.3809 46.0434 63.3809 46.8196V49.6321C63.3809 50.4084 64.0109 51.0384 64.7871 51.0384H64.8884C67.054 51.0384 68.4068 53.3826 67.324 55.2571L67.2734 55.3443C66.8852 56.0165 67.1159 56.8771 67.788 57.2653L70.2237 58.6715C70.8959 59.0596 71.7565 58.829 72.1446 58.1568L72.1952 58.0696C73.278 56.1951 75.9837 56.1951 77.0665 58.0696L77.1171 58.1568C77.5052 58.829 78.3659 59.0596 79.038 58.6715L81.4737 57.2653C82.1459 56.8771 82.3765 56.0165 81.9884 55.3443L81.9377 55.2571C80.8549 53.3826 82.2077 51.0384 84.3734 51.0384H84.4746C85.2509 51.0384 85.8809 50.4084 85.8809 49.6321V46.8196C85.8809 46.0434 85.2509 45.4134 84.4746 45.4134ZM74.6309 52.4446C72.3007 52.4446 70.4121 50.556 70.4121 48.2259C70.4121 45.8957 72.3007 44.0071 74.6309 44.0071C76.961 44.0071 78.8496 45.8957 78.8496 48.2259C78.8496 50.556 76.961 52.4446 74.6309 52.4446Z" fill="#6FA4D8"/>
        <path d="M29.6309 45.4131C29.6309 39.2003 24.5937 34.1631 18.3809 34.1631C16.3291 34.1631 14.4124 34.7214 12.7559 35.6804V36.9756C12.7559 38.5295 14.0145 39.7881 15.5684 39.7881H17.1166C20.8755 39.7881 22.7571 44.3317 20.0993 46.9895L19.0052 48.0836C17.907 49.1818 17.907 50.9621 19.0052 52.0604L22.7332 55.7884C26.7846 54.0882 29.6309 50.0832 29.6309 45.4131Z" fill="#6FA4D8"/>
        <path d="M14.1621 44.0068C15.7154 44.0068 16.9746 42.7476 16.9746 41.1943C16.9746 39.641 15.7154 38.3818 14.1621 38.3818C12.6088 38.3818 11.3496 39.641 11.3496 41.1943C11.3496 42.7476 12.6088 44.0068 14.1621 44.0068Z" fill="white"/>
    </g>
    <defs>
        <clipPath id="clip0">
            <rect width="90" height="90" fill="white" transform="translate(0.0996094 0.413086)"/>
        </clipPath>
    </defs>
</svg>
