<svg width="91" height="91" viewBox="0 0 91 91" fill="none" xmlns="http://www.w3.org/2000/svg">
    <g clip-path="url(#clip0)">
        <path d="M20.6426 17.71H17.8301V20.5225H20.6426V17.71Z" fill="#183651"/>
        <path d="M20.6426 27.835H17.8301V30.6475H20.6426V27.835Z" fill="#183651"/>
        <path d="M20.6426 37.8193H17.8301V40.6319H20.6426V37.8193Z" fill="#183651"/>
        <path d="M72.3926 17.71H69.5801V20.5225H72.3926V17.71Z" fill="#183651"/>
        <path d="M72.3926 27.835H69.5801V30.6475H72.3926V27.835Z" fill="#183651"/>
        <path d="M72.3926 37.8193H69.5801V40.6319H72.3926V37.8193Z" fill="#183651"/>
        <path d="M71.83 48.3662H18.3925C16.1425 48.3662 14.4551 50.1943 14.4551 52.3036V84.9287C14.4551 87.1787 16.2832 88.8661 18.3925 88.8661H71.9707C74.2207 88.8661 75.9081 87.038 75.9081 84.9287V52.3036C75.9081 50.1943 74.08 48.3662 71.83 48.3662Z" fill="white"/>
        <path d="M71.83 90.4131H18.3925C15.4393 90.4131 13.0488 88.0224 13.0488 85.0694V52.3037C13.0488 49.3504 15.4395 46.96 18.3925 46.96H71.9707C74.9239 46.96 77.3144 49.3506 77.3144 52.3037V84.9287C77.3144 88.0224 74.7832 90.4131 71.83 90.4131ZM18.3925 49.7725C16.9863 49.7725 15.8614 50.8976 15.8614 52.3037V84.9287C15.8614 86.335 16.9864 87.4599 18.3925 87.4599H71.9707C73.377 87.4599 74.5019 86.3348 74.5019 84.9287V52.3037C74.5019 50.8974 73.3768 49.7725 71.9707 49.7725H18.3925Z" fill="#183651"/>
        <path d="M70.1426 53.9912H19.9395V83.3819H70.1426V53.9912Z" fill="#4FBF9F"/>
        <path d="M71.83 70.3037H18.3925C15.4393 70.3037 13.0488 67.913 13.0488 64.96C13.0488 64.1162 13.6114 63.5537 14.4551 63.5537C15.2988 63.5537 15.8614 64.1162 15.8614 64.96C15.8614 66.3662 16.9864 67.4911 18.3925 67.4911H71.9707C73.377 67.4911 74.5019 66.3661 74.5019 64.96C74.5019 64.1162 75.0644 63.5537 75.9081 63.5537C76.7519 63.5537 77.3144 64.1162 77.3144 64.96C77.3144 67.7725 74.7832 70.3037 71.83 70.3037Z" fill="#183651"/>
        <path d="M61.5645 49.7724H28.6582C27.8145 49.7724 27.252 49.2099 27.252 48.3662V37.5381C27.252 36.6944 27.8145 36.1318 28.6582 36.1318H61.4238C62.2675 36.1318 62.8301 36.6944 62.8301 37.5381V48.3662C62.9706 49.2099 62.2675 49.7724 61.5645 49.7724ZM30.0643 46.9599H60.0174V38.9444H30.0643V46.9599Z" fill="#183651"/>
        <path d="M41.7363 61.3037V72.5536C41.7363 74.5224 43.2833 75.9287 45.1114 75.9287C47.0802 75.9287 48.4865 74.3818 48.4865 72.5536V61.3037H41.7363Z" fill="white"/>
        <path d="M45.1114 77.4756C42.4396 77.4756 40.3301 75.3663 40.3301 72.6943V61.4444C40.3301 60.6006 40.8926 60.0381 41.7363 60.0381H48.627C49.4707 60.0381 50.0333 60.6006 50.0333 61.4444V72.6943C49.8926 75.2256 47.7833 77.4756 45.1114 77.4756ZM43.1426 62.7101V72.5538C43.1426 73.6789 43.9863 74.5226 45.1114 74.5226C46.2365 74.5226 47.0802 73.6789 47.0802 72.5538V62.7101H43.1426Z" fill="#183651"/>
        <path d="M51.1583 62.71H39.0645C38.2207 62.71 37.6582 62.1474 37.6582 61.3037C37.6582 60.46 38.2207 59.8975 39.0645 59.8975H51.1583C52.002 59.8975 52.5646 60.46 52.5646 61.3037C52.5646 62.1474 52.002 62.71 51.1583 62.71Z" fill="#183651"/>
        <path d="M59.7364 16.0225L54.8146 11.8037H34.9864C33.7208 15.0381 33.0176 20.8037 33.0176 24.3194V39.507C33.0176 41.0539 34.1427 42.4602 35.6894 42.6007C37.3769 42.7413 38.9238 41.4756 38.9238 39.6475C38.9238 41.1944 40.1894 42.6007 41.877 42.6007H42.0177C43.5646 42.6007 44.9709 41.3351 44.9709 39.6475C44.9709 41.1944 46.2365 42.6007 47.9241 42.6007H48.0648C49.6117 42.6007 51.018 41.3351 51.018 39.6475V39.7881C51.018 41.3351 52.2836 42.7413 53.9712 42.7413H54.1119C55.6588 42.7413 57.0651 41.4758 57.0651 39.7881V29.2412C57.0651 30.9287 58.4714 32.335 60.1588 32.1945C61.7058 32.0538 62.9713 30.6475 62.9713 29.1007V25.8664C62.8301 23.335 61.705 17.5693 59.7364 16.0225Z" fill="#FBBD5E"/>
        <path d="M53.9712 44.0068H53.8305C52.7055 44.0068 51.5806 43.5849 50.8773 42.8817C50.1743 43.5847 49.0492 44.0068 48.0648 44.0068H47.9241C46.799 44.0068 45.8148 43.5849 44.9709 42.8817C44.2679 43.5847 43.1428 44.0068 42.0177 44.0068H41.877C40.752 44.0068 39.7677 43.5849 38.9238 42.8817C38.0801 43.7254 36.8145 44.1473 35.5488 44.0068C33.4395 43.7256 31.6113 41.8974 31.6113 39.5068V24.3192C31.6113 20.5223 32.3144 14.6161 33.5801 11.2412C33.8613 10.6786 34.2832 10.3975 34.8457 10.3975H54.6739C54.9551 10.3975 55.3769 10.5381 55.5176 10.6786L60.4395 14.8974C62.9706 17.0067 63.955 23.4755 63.955 25.8662V29.1006C63.955 31.4912 62.1269 33.4599 59.7362 33.6005H59.4551C58.8925 33.6005 58.33 33.4599 57.9081 33.3194V39.6475C58.19 42.0379 56.2212 44.0068 53.9712 44.0068ZM52.2838 39.6473C52.2838 40.491 52.9868 41.1942 53.8307 41.1942H53.9714C54.8151 41.1942 55.5183 40.4912 55.5183 39.6473V29.2411C55.5183 28.3974 56.0809 27.8348 56.9246 27.8348C57.7683 27.8348 58.3309 28.3974 58.3309 29.2411C58.3309 30.0848 59.0339 30.788 59.8778 30.788C60.7217 30.788 61.4248 29.9443 61.4248 29.1006V25.8662C61.4248 23.335 60.2997 18.2725 58.8936 17.0067L54.2526 13.2098H35.9713C34.9869 16.163 34.4244 21.0849 34.4244 24.3192V39.5068C34.4244 40.3505 34.9869 41.0537 35.8307 41.1942C36.6744 41.3349 37.5181 40.6317 37.5181 39.6473C37.5181 38.8036 38.0806 38.241 38.9244 38.241C39.7681 38.241 40.3306 38.8036 40.3306 39.6473C40.3306 40.491 41.0337 41.1942 41.8776 41.1942H42.0183C42.862 41.1942 43.5652 40.4912 43.5652 39.6473C43.5652 38.8036 44.1277 38.241 44.9715 38.241C45.8152 38.241 46.3777 38.8036 46.3777 39.6473C46.3777 40.491 47.0808 41.1942 47.9247 41.1942H48.0653C48.9091 41.1942 49.6123 40.4912 49.6123 39.6473C49.6123 38.8036 50.1748 38.241 51.0186 38.241C51.8623 38.241 52.2838 38.8036 52.2838 39.6473Z" fill="#183651"/>
        <path d="M58.7519 1.81934H32.4551V11.8037H58.7519V1.81934Z" fill="white"/>
        <path d="M58.7521 13.21H32.4551C31.6114 13.21 31.0488 12.6474 31.0488 11.8037V1.81935C31.0488 0.975627 31.6114 0.413086 32.4551 0.413086H58.7519C59.5956 0.413086 60.1581 0.975627 60.1581 1.81935V11.8037C60.1583 12.5069 59.4551 13.21 58.7521 13.21ZM33.8614 10.3974H57.3458V3.22561H33.8614V10.3974Z" fill="#183651"/>
        <path d="M50.877 41.0538C50.0332 41.0538 49.4707 40.4913 49.4707 39.6475V32.1943C49.4707 31.3506 50.0332 30.7881 50.877 30.7881C51.7207 30.7881 52.2832 31.3506 52.2832 32.1943V39.6475C52.2832 40.4913 51.58 41.0538 50.877 41.0538Z" fill="#183651"/>
        <path d="M44.8301 41.0538C43.9864 41.0538 43.4238 40.4913 43.4238 39.6475V32.1943C43.4238 31.3506 43.9864 30.7881 44.8301 30.7881C45.6738 30.7881 46.2363 31.3506 46.2363 32.1943V39.6475C46.2363 40.3507 45.6738 41.0538 44.8301 41.0538Z" fill="#183651"/>
        <path d="M38.9238 41.0538C38.0801 41.0538 37.5176 40.4913 37.5176 39.6475V32.1943C37.5176 31.3506 38.0801 30.7881 38.9238 30.7881C39.7676 30.7881 40.3301 31.3506 40.3301 32.1943V39.6475C40.3301 40.3507 39.6271 41.0538 38.9238 41.0538Z" fill="#183651"/>
        <path d="M56.7832 30.6474C55.9395 30.6474 55.377 30.0849 55.377 29.2411V24.8818C55.377 24.0381 55.9395 23.4756 56.7832 23.4756C57.6269 23.4756 58.1895 24.0381 58.1895 24.8818V29.2411C58.1895 29.9442 57.6269 30.6474 56.7832 30.6474Z" fill="#183651"/>
    </g>
    <defs>
        <clipPath id="clip0">
            <rect width="90" height="90" fill="white" transform="translate(0.111328 0.413086)"/>
        </clipPath>
    </defs>
</svg>
