<svg width="101" height="101" viewBox="0 0 101 101" fill="none" xmlns="http://www.w3.org/2000/svg">
    <g clip-path="url(#clip0)">
        <path d="M93.5318 50.0579C95.636 45.8633 97.2924 41.6465 98.4421 37.4915C102.047 24.4727 100.301 13.5711 93.5257 6.79615C86.7508 0.0212348 75.8492 -1.72514 62.8303 1.87976C58.6754 3.02951 54.4586 4.68661 50.264 6.79004C45.0454 4.17087 39.8193 2.25436 34.7839 1.15039C23.088 -1.41309 13.2301 0.591914 7.02659 6.79615C3.0448 10.7779 0.735383 16.3726 0.349335 22.9758C0.00219688 28.9161 1.20612 35.7329 3.82987 42.7551C1.67533 44.4587 0.289062 47.0924 0.289062 50.0457C0.289062 52.9991 1.67533 55.6327 3.82987 57.3364C1.20612 64.3585 0.00219688 71.1761 0.349335 77.1156C0.736146 83.7188 3.0448 89.3135 7.02659 93.2953C11.473 97.7425 17.7116 100.035 25.2471 100.035C26.76 100.035 28.3256 99.9428 29.94 99.7566C36.4013 99.0112 43.3052 96.8101 50.2739 93.306C54.4655 95.4079 58.6792 97.0627 62.8303 98.2117C67.2607 99.4385 71.4462 100.046 75.3075 100.046C82.7912 100.046 89.0564 97.7646 93.5257 93.2953C99.73 87.0918 101.735 77.2339 99.1715 65.5372C98.0675 60.5026 96.151 55.2764 93.5318 50.0579ZM63.6131 4.70798C75.5692 1.39758 85.4553 2.87616 91.4505 8.87134C97.4457 14.8665 98.9243 24.7527 95.6139 36.7087C94.6869 40.0581 93.4136 43.4531 91.8297 46.8452C88.9916 41.7556 85.5011 36.7126 81.4568 31.9022C82.6958 30.3229 83.4374 28.3355 83.4374 26.1771C83.4374 24.0905 82.7622 22.119 81.4835 20.4757L79.1672 22.277C80.0415 23.4008 80.5031 24.7497 80.5031 26.1771C80.5031 29.6836 77.6505 32.5355 74.1448 32.5355C70.639 32.5355 67.7864 29.6836 67.7864 26.1771C67.7864 22.6706 70.639 19.8188 74.1448 19.8188C75.2892 19.8188 76.4115 20.1255 77.3888 20.7068L78.8887 18.1846C77.4574 17.3339 75.8171 16.8837 74.1448 16.8837C71.9864 16.8837 69.9989 17.6261 68.4204 18.8651C63.6093 14.8208 58.5663 11.3303 53.4767 8.4914C56.8687 6.9083 60.2638 5.63495 63.6131 4.70798ZM9.10179 8.87134C17.0356 0.937526 31.5834 1.23355 47.0634 8.48301C39.5065 12.6975 32.0945 18.341 25.3326 25.1021C20.3185 30.1162 15.9057 35.5018 12.1986 41.1239C11.3631 40.8813 10.4842 40.7523 9.58244 40.7523C8.47236 40.7523 7.40806 40.9492 6.42005 41.307C1.33582 27.4497 2.28797 15.6844 9.10179 8.87134ZM25.3234 97.0901C18.6851 97.0901 13.0416 95.1599 9.10103 91.2201C2.28797 84.407 1.33505 72.6425 6.42005 58.7844C7.40806 59.143 8.47236 59.3391 9.58244 59.3391C10.4896 59.3391 11.3654 59.2056 12.1955 58.9622C15.9026 64.5866 20.317 69.9737 25.3326 74.9893C32.0922 81.7482 39.5019 87.3901 47.0566 91.6046C39.2967 95.2362 31.8313 97.0909 25.3234 97.0901ZM50.2678 90.0078C42.3416 85.8444 34.5146 80.0201 27.4078 72.9141C22.6325 68.1381 18.4203 63.0203 14.8689 57.6827C17.2874 56.0035 18.8751 53.2073 18.8751 50.0465C18.8751 49.771 18.8636 49.4926 18.8392 49.2187L15.9156 49.4773C15.9324 49.665 15.9408 49.8557 15.9408 50.0457C15.9408 53.5522 13.0882 56.4041 9.58244 56.4041C6.07673 56.4041 3.22409 53.5522 3.22409 50.0457C3.22409 46.5392 6.07673 43.6874 9.58244 43.6874C12.004 43.6874 14.1837 45.0332 15.2702 47.1992L17.8932 45.8839C17.176 44.4534 16.1308 43.2685 14.875 42.398C18.4257 37.065 22.6356 31.9495 27.4078 27.1773C34.5161 20.069 42.3462 14.2432 50.2746 10.0798C55.6709 12.9203 61.1305 16.5824 66.42 21.0174C65.4297 22.4944 64.8514 24.269 64.8514 26.1771C64.8514 31.301 69.0208 35.4697 74.1448 35.4697C76.0529 35.4697 77.8275 34.8914 79.3045 33.9011C83.7395 39.1906 87.4008 44.651 90.2413 50.0465C86.0779 57.9749 80.2521 65.805 73.1445 72.9141C72.3625 73.6953 71.5592 74.472 70.7474 75.2327C69.1277 73.8624 67.0364 73.0339 64.7537 73.0339C62.6671 73.0339 60.6956 73.7098 59.0523 74.9878L60.8543 77.304C61.9774 76.4305 63.3263 75.9689 64.7537 75.9681C68.2594 75.9681 71.1121 78.8208 71.1121 82.3265C71.1121 85.833 68.2594 88.6848 64.7537 88.6848C61.248 88.6848 58.3954 85.833 58.3954 82.3265C58.3954 81.1821 58.7021 80.0605 59.2834 79.0832L56.7612 77.5825C55.9105 79.0138 55.4603 80.6541 55.4603 82.3265C55.4603 83.799 55.806 85.1906 56.4178 86.4288C54.3617 87.7411 52.3079 88.9343 50.2678 90.0078ZM91.4505 91.2201C85.4553 97.216 75.5692 98.6938 63.6131 95.3842C60.2661 94.4572 56.8741 93.1854 53.4843 91.6031C55.03 90.7394 56.5765 89.8125 58.1184 88.8252C59.8068 90.5479 62.1567 91.6199 64.7537 91.6199C69.8776 91.6199 74.0471 87.4511 74.0471 82.3272C74.0471 80.5427 73.5405 78.8757 72.6654 77.4582C73.5306 76.6487 74.3866 75.8216 75.219 74.9893C81.9809 68.2266 87.6236 60.8146 91.8389 53.2577C99.0883 68.7385 99.3844 83.2863 91.4505 91.2201Z" fill="#ECECEC"/>
        <path d="M74.3395 65.2088H71.3076V57.8151C71.3076 54.5451 69.1096 51.6414 65.9625 50.7533L64.8653 50.4443L64.0688 53.2687L65.1659 53.5785C67.0535 54.111 68.3726 55.8528 68.3726 57.8151V65.2088H63.09V61.198H60.1557V65.2088H46.9492V68.143H74.3395V65.2088Z" fill="#ECECEC"/>
        <path d="M55.1298 50.7473L61.2456 52.4731L62.0428 49.648L56.0484 47.9573V44.0602C58.7622 42.2093 60.5482 39.0942 60.5482 35.5687V31.2641C60.5482 25.6008 55.9409 20.9927 50.2768 20.9927C44.6135 20.9927 40.0053 25.6008 40.0053 31.2641V35.5687C40.0053 39.0942 41.7914 42.2093 44.5051 44.0602V47.9573L34.59 50.7535C31.4428 51.6415 29.2448 54.5453 29.2448 57.8152V65.2089H26.2129V68.1432H44.0161V65.2089H40.3967V61.1981H37.4624V65.2089H32.1798V57.8152C32.1798 55.8529 33.499 54.1112 35.3865 53.5786L45.4237 50.7481C46.6597 52.1 48.4053 52.8836 50.2768 52.8836C52.1483 52.8836 53.8946 52.0993 55.1298 50.7473ZM50.2768 23.9277C54.3219 23.9277 57.6132 27.219 57.6132 31.2649V32.8991L54.5286 28.8189H43.3607C44.3701 25.9724 47.0885 23.9277 50.2768 23.9277ZM42.9404 35.5687V31.7539H53.0684L57.3698 37.4424C56.539 40.5835 53.6742 42.9051 50.2768 42.9051C46.2317 42.9051 42.9404 39.6138 42.9404 35.5687ZM47.4402 48.5943V45.438C48.3412 45.6982 49.2926 45.8401 50.2768 45.8401C51.261 45.8401 52.2116 45.6982 53.1134 45.438V48.5943C52.4237 49.4481 51.3907 49.9485 50.2768 49.9485C49.1629 49.9485 48.1291 49.4481 47.4402 48.5943Z" fill="#ECECEC"/>
        <path d="M58.0262 57.6625L53.8926 56.4968L54.6898 53.6724L58.8227 54.8381L58.0262 57.6625Z" fill="#ECECEC"/>
        <path d="M64.4674 56.4259L63.6701 59.2503L60.8457 58.4538L61.643 55.6294L64.4674 56.4259Z" fill="#ECECEC"/>
        <path d="M72.6777 24.7104H75.612V27.6455H72.6777V24.7104Z" fill="#ECECEC"/>
        <path d="M63.2871 80.8604H66.2214V83.7946H63.2871V80.8604Z" fill="#ECECEC"/>
        <path d="M8.11523 48.5786H11.0503V51.5129H8.11523V48.5786Z" fill="#ECECEC"/>
    </g>
    <defs>
        <clipPath id="clip0">
            <rect width="100" height="100" fill="white" transform="translate(0.09375 0.0458984)"/>
        </clipPath>
    </defs>
</svg>
