<svg width="121" height="121" viewBox="0 0 121 121" fill="none" xmlns="http://www.w3.org/2000/svg">
    <mask id="mask0" mask-type="alpha" maskUnits="userSpaceOnUse" x="0" y="0" width="121" height="121">
        <circle cx="60.0937" cy="60.7959" r="60" fill="#191223"/>
    </mask>
    <g mask="url(#mask0)">
        <g clip-path="url(#clip0)">
            <path d="M68.711 89.6748L100.671 105.655C102.546 106.592 104.165 107.97 105.391 109.671C106.617 111.371 107.412 113.344 107.708 115.419L108.476 120.796H11.6562L12.4243 115.419C12.7208 113.344 13.5159 111.371 14.7416 109.671C15.9673 107.97 17.587 106.592 19.4619 105.655L51.4217 89.6748H68.711Z" fill="#026CA2"/>
            <path d="M51.4219 89.6748H68.7112V120.796H51.4219V89.6748Z" fill="#CBCBCB"/>
            <path d="M51.4223 82.7593V89.675L49.6934 94.8618V96.5907H70.4405V94.8618L68.7116 89.675V82.7593H51.4223Z" fill="#FDC9A6"/>
            <path d="M68.7112 82.7593V87.0038C68.6939 87.0168 68.6744 87.0276 68.6572 87.0406C66.112 88.7638 63.1075 89.6818 60.0339 89.6752C56.9602 89.6687 53.9596 88.7379 51.4219 87.0038V82.7593H68.7112Z" fill="#FDC9A6"/>
            <path d="M68.7112 82.7593V87.0038C68.6939 87.0168 68.6744 87.0276 68.6572 87.0406C66.112 88.7638 63.1075 89.6818 60.0339 89.6752C56.9602 89.6687 53.9596 88.7379 51.4219 87.0038V82.7593H68.7112Z" fill="#E6AF89"/>
            <path d="M20.3008 120.796V113.88C20.3008 113.421 20.4829 112.982 20.8072 112.657C21.1314 112.333 21.5712 112.151 22.0297 112.151C22.4883 112.151 22.928 112.333 23.2523 112.657C23.5765 112.982 23.7586 113.421 23.7586 113.88V120.796H20.3008Z" fill="#015078"/>
            <path d="M96.373 120.796V113.88C96.373 113.421 96.5552 112.982 96.8794 112.657C97.2037 112.333 97.6434 112.151 98.102 112.151C98.5605 112.151 99.0003 112.333 99.3245 112.657C99.6488 112.982 99.8309 113.421 99.8309 113.88V120.796H96.373Z" fill="#015078"/>
            <path d="M54.6328 99.3076L56.6088 105.235H63.5245L65.5005 99.3076L60.0666 96.5908L54.6328 99.3076Z" fill="#0296E5"/>
            <path d="M56.6078 105.235L54.8789 120.796H65.2525L63.5236 105.235H56.6078Z" fill="#026CA2"/>
            <path d="M82.7422 52.4863L83.4816 49.5471C84.2595 46.4545 84.2814 43.2201 83.5454 40.1173C82.8095 37.0145 81.3373 34.1345 79.2533 31.7207C77.1377 28.8936 74.2448 26.7436 70.9277 25.5332C67.6106 24.3229 64.0128 24.1045 60.5737 24.9048C59.4269 25.172 58.2846 25.4376 57.1945 25.6909C54.8399 26.2376 52.635 27.2971 50.7369 28.7937C48.8388 30.2902 47.2941 32.1871 46.2132 34.3491H45.7541C44.2863 34.3492 42.8386 34.691 41.5257 35.3474C40.2128 36.0039 39.0708 36.9569 38.19 38.1312C36.6853 40.1375 36.0392 42.6593 36.3939 45.142L37.5685 53.3674L38.198 58.5542H80.8134L82.2365 54.2303C82.426 53.655 82.5946 53.0737 82.7422 52.4863Z" fill="#55300B"/>
            <path d="M60.0667 86.2169C57.0044 86.2168 54.0124 85.2992 51.4767 83.5824C48.9409 81.8656 46.9777 79.4284 45.8404 76.5852C43.8169 71.5265 42.7773 66.1282 42.7773 60.6799V48.1804L47.9641 39.3779C50.7015 42.1653 53.9668 44.3793 57.5694 45.8906C61.1719 47.402 65.0395 48.1804 68.9462 48.1804H77.356V60.6799C77.3561 66.1285 76.3165 71.5271 74.293 76.5861C73.1555 79.4291 71.1922 81.8661 68.6565 83.5828C66.1207 85.2994 63.1288 86.2169 60.0667 86.2169Z" fill="#FDC9A6"/>
            <path d="M70.4392 55.0965H65.2524C64.7938 55.0965 64.3541 54.9144 64.0298 54.5901C63.7056 54.2659 63.5234 53.8261 63.5234 53.3676C63.5234 52.9091 63.7056 52.4693 64.0298 52.1451C64.3541 51.8208 64.7938 51.6387 65.2524 51.6387H70.4392C70.8977 51.6387 71.3375 51.8208 71.6617 52.1451C71.9859 52.4693 72.1681 52.9091 72.1681 53.3676C72.1681 53.8261 71.9859 54.2659 71.6617 54.5901C71.3375 54.9144 70.8977 55.0965 70.4392 55.0965Z" fill="#55300B"/>
            <path d="M67.4131 61.148C68.6067 61.148 69.5743 60.1804 69.5743 58.9868C69.5743 57.7933 68.6067 56.8257 67.4131 56.8257C66.2195 56.8257 65.252 57.7933 65.252 58.9868C65.252 60.1804 66.2195 61.148 67.4131 61.148Z" fill="#55300B"/>
            <path d="M54.8786 55.0965H49.6918C49.2333 55.0965 48.7935 54.9144 48.4693 54.5901C48.145 54.2659 47.9629 53.8261 47.9629 53.3676C47.9629 52.9091 48.145 52.4693 48.4693 52.1451C48.7935 51.8208 49.2333 51.6387 49.6918 51.6387H54.8786C55.3372 51.6387 55.7769 51.8208 56.1012 52.1451C56.4254 52.4693 56.6075 52.9091 56.6075 53.3676C56.6075 53.8261 56.4254 54.2659 56.1012 54.5901C55.7769 54.9144 55.3372 55.0965 54.8786 55.0965Z" fill="#55300B"/>
            <path d="M52.7178 61.148C53.9114 61.148 54.879 60.1804 54.879 58.9868C54.879 57.7933 53.9114 56.8257 52.7178 56.8257C51.5242 56.8257 50.5566 57.7933 50.5566 58.9868C50.5566 60.1804 51.5242 61.148 52.7178 61.148Z" fill="#55300B"/>
            <path d="M63.5236 75.8436H56.6078C56.1493 75.8436 55.7095 75.6615 55.3853 75.3372C55.0611 75.013 54.8789 74.5732 54.8789 74.1147C54.8789 73.6561 55.0611 73.2164 55.3853 72.8921C55.7095 72.5679 56.1493 72.3857 56.6078 72.3857H63.5236C63.9821 72.3857 64.4219 72.5679 64.7461 72.8921C65.0703 73.2164 65.2525 73.6561 65.2525 74.1147C65.2525 74.5732 65.0703 75.013 64.7461 75.3372C64.4219 75.6615 63.9821 75.8436 63.5236 75.8436Z" fill="#E6AF89"/>
            <path d="M61.7962 68.9279H58.3383C57.8798 68.9279 57.44 68.7457 57.1158 68.4215C56.7915 68.0972 56.6094 67.6575 56.6094 67.1989V62.0121C56.6094 61.5536 56.7915 61.1138 57.1158 60.7896C57.44 60.4654 57.8798 60.2832 58.3383 60.2832C58.7968 60.2832 59.2366 60.4654 59.5608 60.7896C59.8851 61.1138 60.0672 61.5536 60.0672 62.0121V65.47H61.7962C62.2547 65.47 62.6945 65.6522 63.0187 65.9764C63.3429 66.3006 63.5251 66.7404 63.5251 67.1989C63.5251 67.6575 63.3429 68.0972 63.0187 68.4215C62.6945 68.7457 62.2547 68.9279 61.7962 68.9279Z" fill="#E6AF89"/>
            <path d="M42.7771 53.3672H40.3877C39.1872 53.3672 38.0359 53.8441 37.1871 54.6929C36.3382 55.5418 35.8613 56.6931 35.8613 57.8935V60.9434C35.8613 61.646 36.0249 62.339 36.3392 62.9675C36.7151 63.7194 37.2929 64.3517 38.008 64.7937C38.7231 65.2356 39.5471 65.4697 40.3877 65.4697H43.4254L42.7771 53.3672Z" fill="#FDC9A6"/>
            <path d="M77.3554 53.3672H79.7448C80.9452 53.3672 82.0965 53.8441 82.9454 54.6929C83.7942 55.5418 84.2711 56.6931 84.2711 57.8935V60.9434C84.2711 61.646 84.1075 62.339 83.7933 62.9675C83.4174 63.7194 82.8395 64.3517 82.1244 64.7937C81.4094 65.2356 80.5854 65.4697 79.7448 65.4697H76.707L77.3554 53.3672Z" fill="#FDC9A6"/>
            <path d="M51.4223 89.6748L60.0669 96.5905L49.6934 101.777V94.8616L51.4223 89.6748Z" fill="#EBEBEB"/>
            <path d="M68.7111 89.6748L60.0664 96.5905L70.44 101.777V94.8616L68.7111 89.6748Z" fill="#EBEBEB"/>
            <path d="M51.4213 120.796H42.7766L37.5898 105.235L51.4213 89.6748V120.796Z" fill="#0296E5"/>
            <path d="M68.7109 120.796H77.3556L82.5424 105.235L68.7109 89.6748V120.796Z" fill="#0296E5"/>
        </g>
    </g>
    <defs>
        <clipPath id="clip0">
            <rect width="105" height="105" fill="white" transform="translate(5.09375 15.7959)"/>
        </clipPath>
    </defs>
</svg>
