<svg width="43" height="43" viewBox="0 0 43 43" fill="none" xmlns="http://www.w3.org/2000/svg">
<path d="M6.28066 16.6759C6.4969 16.1641 6.73643 15.6689 6.9945 15.1928C7.32238 14.5833 7.68282 14.0048 8.07108 13.4549C8.26877 13.1739 8.65473 13.1121 8.92912 13.3145C9.20352 13.5191 9.26398 13.912 9.06636 14.1928C8.69895 14.7119 8.36647 15.2475 8.06648 15.8022C7.91079 16.0879 7.7642 16.3807 7.62704 16.6759H9.86863C10.2105 16.6759 10.4848 16.9569 10.4848 17.3044V20.2873V22.818C10.4848 23.4012 10.3616 23.9559 10.1407 24.4583C10.7872 24.7344 11.3384 25.0867 11.7592 25.4939C12.3638 26.0747 12.7103 26.7723 12.7103 27.5293V30.6027C12.7103 30.9503 12.4335 31.2336 12.094 31.2336H8.27345C8.47574 31.5883 8.69197 31.9359 8.91986 32.2716C9.34543 32.8977 9.81039 33.4857 10.3127 34.0309C10.5452 34.2832 10.5336 34.6807 10.2848 34.9188C10.0383 35.1569 9.65002 35.1449 9.41746 34.8926C8.87105 34.2951 8.36647 33.6594 7.91071 32.9905C7.52934 32.4286 7.18055 31.843 6.86653 31.2335H1.04395C0.704508 31.2335 0.427734 30.9502 0.427734 30.6026V27.5292C0.427734 26.777 0.769559 26.0865 1.36486 25.5057C1.78806 25.0938 2.34612 24.7367 2.9972 24.4582C2.77629 23.9559 2.65308 23.4011 2.65308 22.8179V20.2873V19.197C2.65308 18.5018 2.92977 17.8709 3.37627 17.4139C3.82268 16.9592 4.43898 16.6758 5.11566 16.6758H6.28066V16.6759ZM38.9723 21.8682L35.7262 20.7421L33.6031 21.8086V22.818C33.6031 23.5727 33.9055 24.2607 34.3914 24.7583C34.8774 25.2559 35.5494 25.5653 36.2865 25.5653C37.0261 25.5653 37.6957 25.2559 38.184 24.7583C38.67 24.2608 38.9723 23.5727 38.9723 22.818V21.8682ZM33.6031 20.4112L35.3797 19.5208C35.5261 19.4327 35.7076 19.4089 35.8819 19.4684L38.9723 20.5397V19.1971C38.9723 18.8494 38.835 18.5353 38.6095 18.3067C38.3862 18.0758 38.0793 17.9353 37.7398 17.9353H34.8331C34.496 17.9353 34.189 18.0757 33.9634 18.3067C33.7402 18.5352 33.603 18.8494 33.603 19.1971V20.4112H33.6031ZM3.88314 19.6565H9.25462V17.9354H5.11557C4.77843 17.9354 4.46917 18.0758 4.24588 18.3067C4.02267 18.5353 3.88305 18.8495 3.88305 19.1971V19.6565H3.88314ZM9.25462 20.9159H3.88314V22.818C3.88314 23.5727 4.1855 24.2607 4.67384 24.7583C5.15987 25.2559 5.83187 25.5653 6.569 25.5653C7.30605 25.5653 7.97814 25.2559 8.46409 24.7583C8.95242 24.2608 9.25471 23.5727 9.25471 22.818V20.9159H9.25462ZM24.1134 33.374C23.2345 33.5049 21.802 33.4906 20.6139 32.417C20.1977 32.6645 19.5395 32.9407 18.742 32.8741V34.4001C18.742 35.1548 19.0444 35.8428 19.5326 36.3427C20.0187 36.8402 20.6906 37.1497 21.4277 37.1497C22.1672 37.1497 22.8369 36.8402 23.3252 36.3427C23.8112 35.8428 24.1134 35.1548 24.1134 34.4001V33.374ZM18.742 31.6122C19.6373 31.7408 20.2675 31.1408 20.2675 31.1385L20.2698 31.1408L20.2837 31.1265C20.5395 30.9004 20.9255 30.9289 21.1487 31.1909C22.1114 32.3241 23.4461 32.2407 24.1135 32.1074V30.779C24.1135 30.4338 23.974 30.1172 23.7508 29.8886C23.5275 29.6601 23.2206 29.5172 22.8811 29.5172H19.9744C19.6373 29.5172 19.328 29.6601 19.1047 29.8886C18.8815 30.1172 18.7419 30.4338 18.7419 30.779V31.6122H18.742ZM9.44764 25.5273C8.70584 26.3534 7.6665 26.8271 6.56892 26.8271C5.47134 26.8271 4.43193 26.3534 3.69012 25.5296C3.07857 25.763 2.57162 26.0653 2.21126 26.4153C1.86016 26.7581 1.65779 27.139 1.65779 27.5294V29.9743H11.4801V27.5294C11.4801 27.1366 11.2754 26.7533 10.9173 26.4081C10.5569 26.0605 10.0545 25.7606 9.44764 25.5273ZM40.2024 22.818C40.2024 23.4013 40.0792 23.956 39.8583 24.4583C40.5094 24.7368 41.0651 25.0939 41.4883 25.5034C42.0859 26.0844 42.4277 26.7747 42.4277 27.5294V30.6028C42.4277 30.9504 42.1533 31.2337 41.8139 31.2337H35.9679C35.6517 31.8217 35.2959 32.3978 34.9076 32.9573C34.4449 33.6215 33.938 34.2548 33.3915 34.85C33.1589 35.1023 32.7706 35.1143 32.5242 34.8762C32.2777 34.6381 32.266 34.2406 32.4963 33.9882C33.0078 33.4336 33.4798 32.8432 33.9077 32.2289C34.1332 31.9051 34.3472 31.5742 34.5495 31.2338H30.7615C30.422 31.2338 30.1453 30.9505 30.1453 30.6029V27.5295C30.1453 26.7724 30.4917 26.0797 31.0939 25.4965C31.5148 25.0893 32.0683 24.7346 32.717 24.4585C32.4938 23.9562 32.3705 23.4015 32.3705 22.8182V19.1972C32.3705 18.5021 32.6495 17.8712 33.0936 17.4142C33.5401 16.9595 34.1563 16.6761 34.833 16.6761H35.2352C35.1027 16.3857 34.9585 16.1 34.8051 15.819C34.5004 15.2572 34.1587 14.7096 33.7843 14.1859C33.5843 13.9049 33.6425 13.5122 33.9168 13.3075C34.1888 13.1027 34.5725 13.1622 34.7749 13.4431C35.1748 14.005 35.5446 14.5954 35.877 15.2096C36.1351 15.6833 36.3701 16.1737 36.5817 16.676H37.7397C38.4185 16.676 39.0349 16.9594 39.4813 17.4141C39.9255 17.8711 40.2021 18.502 40.2021 19.1971V22.818H40.2024ZM39.1653 25.5296C38.4235 26.3534 37.3863 26.8271 36.2865 26.8271C35.1889 26.8271 34.1518 26.3534 33.4077 25.5296C32.8009 25.7606 32.2962 26.0629 31.9359 26.4105C31.58 26.7556 31.3777 27.139 31.3777 27.5294V29.9743H41.1976V27.5294C41.1976 27.139 40.9952 26.7581 40.6418 26.4153C40.2838 26.0653 39.7769 25.763 39.1653 25.5296ZM25.3436 34.4C25.3436 34.9833 25.2204 35.5403 24.9995 36.0403C25.6505 36.3212 26.2063 36.6759 26.6295 37.0877C26.8597 37.3116 27.0527 37.552 27.2016 37.8067C27.6945 37.5925 28.1736 37.352 28.6409 37.0854C29.2873 36.7164 29.9106 36.295 30.5057 35.8307C30.7755 35.6189 31.1592 35.6713 31.3661 35.9474C31.5707 36.2235 31.5195 36.6188 31.2498 36.8282C30.6127 37.3258 29.9407 37.7805 29.2361 38.1828C28.6944 38.4923 28.1362 38.7709 27.5665 39.0113C27.5688 39.0446 27.5688 39.0804 27.5688 39.1137V42.1871C27.5688 42.5347 27.2944 42.8156 26.955 42.8156H15.9028C15.5632 42.8156 15.2865 42.5346 15.2865 42.1871V39.1137C15.2865 39.0804 15.2888 39.047 15.2888 39.0138C14.7028 38.7685 14.1332 38.4924 13.5821 38.1852C12.8798 37.7948 12.2101 37.352 11.573 36.864C11.301 36.6569 11.2475 36.2641 11.4498 35.9855C11.6522 35.7093 12.0381 35.6522 12.3078 35.8617C12.8962 36.3116 13.517 36.7188 14.1681 37.083C14.6471 37.352 15.1424 37.5925 15.6517 37.8092C15.8005 37.5569 15.9912 37.3188 16.219 37.095C16.6422 36.6808 17.2003 36.3237 17.8584 36.0427C17.635 35.5404 17.5118 34.9857 17.5118 34.4001V30.7791C17.5118 30.0863 17.7885 29.4555 18.235 28.9984C18.6815 28.5413 19.2977 28.258 19.9743 28.258H22.881C23.56 28.258 24.1762 28.5413 24.6203 28.9984C25.0668 29.4555 25.3435 30.0863 25.3435 30.7791V34.4H25.3436ZM24.3065 37.1116C23.5647 37.9377 22.5253 38.4091 21.4277 38.4091C20.3302 38.4091 19.2907 37.9377 18.549 37.1116C17.9352 37.3449 17.4281 37.652 17.0654 38.0043C16.7166 38.3447 16.5167 38.7257 16.5167 39.1138V41.5563H26.3388V39.1138C26.3388 38.7233 26.1365 38.34 25.7854 37.9996C25.425 37.6496 24.9181 37.3448 24.3065 37.1116ZM10.8196 12.1241C10.5754 12.3646 10.1871 12.3575 9.9523 12.1074C9.71745 11.8575 9.72442 11.4599 9.96854 11.2195C10.4569 10.7386 10.9685 10.291 11.5056 9.87916C11.9498 9.53877 12.4195 9.21736 12.9101 8.91737C13.0683 6.76762 13.9844 4.83455 15.3889 3.39893C16.9328 1.81582 19.0699 0.837402 21.4277 0.837402C23.7879 0.837402 25.9226 1.81582 27.469 3.39893C28.8617 4.8249 29.7756 6.74377 29.9431 8.87445C30.4243 9.1768 30.8895 9.50534 31.3359 9.85287C31.8731 10.2719 32.3893 10.7266 32.8777 11.2146C33.1219 11.455 33.1265 11.8526 32.8916 12.1026C32.6544 12.3501 32.2661 12.3549 32.0243 12.1145C31.5708 11.6645 31.0918 11.2431 30.5918 10.8527C30.3779 10.6836 30.1594 10.5242 29.9407 10.3695C29.7501 12.762 28.706 14.388 27.7037 15.945C26.7968 17.3567 25.9272 18.7089 25.9133 20.5254L25.9156 23.4369C25.9156 24.2749 25.5807 25.0344 25.0413 25.5867C24.504 26.1366 23.76 26.4794 22.9438 26.4794H19.914C19.0954 26.4794 18.3514 26.1366 17.8141 25.5867C17.277 25.0343 16.9422 24.2749 16.9422 23.4369L16.9444 20.5254C16.9282 18.709 16.0608 17.3567 15.154 15.945C14.1541 14.3928 13.1147 12.7764 12.9194 10.3981C12.6892 10.5552 12.4636 10.7195 12.2427 10.8885C11.7358 11.2743 11.2614 11.6885 10.8196 12.1241ZM18.1722 22.4824H24.6831V21.2064H18.1722V22.4824ZM24.6575 23.7418H18.1979C18.2608 24.1107 18.4351 24.4417 18.6839 24.6964C19.0001 25.0202 19.4349 25.2202 19.914 25.2202H22.9438C23.4205 25.2202 23.8553 25.0202 24.1716 24.6964C24.4204 24.4417 24.5947 24.1107 24.6575 23.7418ZM20.8347 14.3882C20.7347 14.012 20.5603 13.4978 20.3627 12.9097C19.807 11.2647 19.0675 9.0745 19.0675 7.41993C19.0675 5.83204 19.6605 4.69884 21.4277 4.69884C23.1948 4.69884 23.7902 5.83204 23.7902 7.41993C23.7902 9.0745 23.0507 11.2647 22.495 12.9097C22.295 13.5001 22.1207 14.0192 22.0183 14.3953C21.9299 14.731 21.5927 14.9262 21.2672 14.8357C21.0465 14.7738 20.8883 14.5977 20.8347 14.3882ZM20.2977 7.41993C20.2977 8.79593 20.9185 10.7124 21.4277 12.2289C21.9393 10.7124 22.5602 8.79593 22.5602 7.41993C22.5602 6.56766 22.2742 5.95818 21.4277 5.95818C20.5813 5.95826 20.2977 6.56774 20.2977 7.41993ZM20.8139 16.6117C20.8139 16.2641 21.0883 15.9832 21.4277 15.9832C21.7672 15.9832 22.044 16.2642 22.044 16.6117V17.2663C22.044 17.6139 21.7673 17.8949 21.4277 17.8949C21.0882 17.8949 20.8139 17.6139 20.8139 17.2663V16.6117ZM18.1421 19.947H24.7133C24.8762 18.0639 25.7598 16.6879 26.6806 15.2571C27.6874 13.6906 28.7407 12.0503 28.7407 9.58404C28.7407 7.51525 27.9223 5.644 26.5992 4.28941C25.2761 2.93483 23.4484 2.09683 21.4277 2.09683C19.4094 2.09683 17.5816 2.93483 16.2585 4.28941C14.9354 5.644 14.1169 7.51525 14.1169 9.58404C14.1169 12.0504 15.1703 13.6906 16.1772 15.2571C17.0956 16.6879 17.9816 18.0639 18.1421 19.947Z" fill="black"/>
</svg>
