<svg width="45" height="45" viewBox="0 0 45 45" fill="none" xmlns="http://www.w3.org/2000/svg">
<g clip-path="url(#clip0)">
<path d="M41.3438 5.09131H2.84375C2.29696 5.09204 1.77278 5.30957 1.38615 5.6962C0.99951 6.08284 0.781978 6.60702 0.78125 7.15381V30.5288C0.781978 31.0756 0.99951 31.5998 1.38615 31.9864C1.77278 32.373 2.29696 32.5906 2.84375 32.5913H17.057L16.0755 36.0288H13.1562C12.9739 36.0288 12.799 36.1012 12.6701 36.2302C12.5412 36.3591 12.4688 36.534 12.4688 36.7163V38.0913H6.96875C6.78641 38.0913 6.61155 38.1637 6.48261 38.2927C6.35368 38.4216 6.28125 38.5965 6.28125 38.7788C6.28125 38.9611 6.35368 39.136 6.48261 39.2649C6.61155 39.3939 6.78641 39.4663 6.96875 39.4663H37.2188C37.4011 39.4663 37.576 39.3939 37.7049 39.2649C37.8338 39.136 37.9062 38.9611 37.9062 38.7788C37.9062 38.5965 37.8338 38.4216 37.7049 38.2927C37.576 38.1637 37.4011 38.0913 37.2188 38.0913H31.7188V36.7163C31.7188 36.534 31.6463 36.3591 31.5174 36.2302C31.3885 36.1012 31.2136 36.0288 31.0312 36.0288H28.112L27.1305 32.5913H41.3438C41.8905 32.5906 42.4147 32.373 42.8014 31.9864C43.188 31.5998 43.4055 31.0756 43.4062 30.5288V7.15381C43.4055 6.60702 43.188 6.08284 42.8014 5.6962C42.4147 5.30957 41.8905 5.09204 41.3438 5.09131ZM30.3438 37.4038V38.0913H13.8438V37.4038H30.3438ZM17.5055 36.0288L18.487 32.5913H25.7005L26.682 36.0288H17.5055ZM42.0312 30.5288C42.031 30.7111 41.9585 30.8858 41.8296 31.0147C41.7007 31.1435 41.526 31.2161 41.3438 31.2163H2.84375C2.66149 31.2161 2.48677 31.1435 2.35789 31.0147C2.22901 30.8858 2.1565 30.7111 2.15625 30.5288V29.1538H42.0312V30.5288ZM42.0312 27.7788H2.15625V7.15381C2.1565 6.97155 2.22901 6.79683 2.35789 6.66795C2.48677 6.53907 2.66149 6.46656 2.84375 6.46631H41.3438C41.526 6.46656 41.7007 6.53907 41.8296 6.66795C41.9585 6.79683 42.031 6.97155 42.0312 7.15381V27.7788Z" fill="black"/>
<path d="M33.0936 17.5849V14.0288C33.0936 13.8979 33.0562 13.7698 32.9859 13.6594C32.9155 13.5491 32.8152 13.4611 32.6966 13.4058L22.3841 8.59326C22.2931 8.55081 22.194 8.52881 22.0936 8.52881C21.9932 8.52881 21.8941 8.55081 21.8031 8.59326L11.4906 13.4058C11.372 13.4611 11.2717 13.5491 11.2014 13.6595C11.1311 13.7698 11.0938 13.898 11.0938 14.0288C11.0938 14.1597 11.1311 14.2878 11.2014 14.3982C11.2717 14.5085 11.372 14.5965 11.4906 14.6519L15.2186 16.3912V24.3413C15.2186 24.5236 15.291 24.6985 15.4199 24.8274C15.5489 24.9564 15.7237 25.0288 15.9061 25.0288H28.2811C28.4634 25.0288 28.6383 24.9564 28.7672 24.8274C28.8961 24.6985 28.9686 24.5236 28.9686 24.3413V16.3912L31.7186 15.1082V17.5849C31.2599 17.7471 30.8733 18.0662 30.6271 18.4859C30.3809 18.9055 30.291 19.3987 30.3733 19.8782C30.4556 20.3577 30.7047 20.7928 31.0767 21.1064C31.4487 21.42 31.9195 21.5919 32.4061 21.5919C32.8926 21.5919 33.3635 21.42 33.7355 21.1064C34.1075 20.7928 34.3566 20.3577 34.4389 19.8782C34.5212 19.3987 34.4313 18.9055 34.1851 18.4859C33.9389 18.0662 33.5523 17.7471 33.0936 17.5849ZM27.5936 23.6538H16.5936V17.0332L21.8031 19.4644C21.8941 19.5068 21.9932 19.5288 22.0936 19.5288C22.194 19.5288 22.2931 19.5068 22.3841 19.4644L27.5936 17.0332V23.6538ZM22.0936 18.0825L13.407 14.0288L22.0936 9.97514L30.7801 14.0288L22.0936 18.0825ZM32.4061 20.2163C32.2701 20.2163 32.1372 20.176 32.0241 20.1004C31.9111 20.0249 31.823 19.9175 31.7709 19.7919C31.7189 19.6663 31.7053 19.528 31.7318 19.3947C31.7583 19.2613 31.8238 19.1388 31.9199 19.0427C32.0161 18.9465 32.1386 18.881 32.272 18.8545C32.4053 18.828 32.5436 18.8416 32.6692 18.8936C32.7948 18.9457 32.9022 19.0338 32.9777 19.1469C33.0533 19.2599 33.0936 19.3928 33.0936 19.5288C33.0933 19.7111 33.0208 19.8858 32.8919 20.0147C32.7631 20.1435 32.5883 20.2161 32.4061 20.2163Z" fill="black"/>
</g>
<defs>
<clipPath id="clip0">
<rect width="44" height="44" fill="white" transform="translate(0.09375 0.278809)"/>
</clipPath>
</defs>
</svg>
