<svg width="41" height="40" viewBox="0 0 41 40" fill="none" xmlns="http://www.w3.org/2000/svg">
    <g clip-path="url(#clip0)">
        <path d="M12.2383 18.4017C12.2383 22.8265 15.8382 26.4264 20.263 26.4264C24.6878 26.4264 28.2877 22.8265 28.2877 18.4017C28.2877 13.9768 24.6878 10.377 20.263 10.377C15.8382 10.377 12.2383 13.9768 12.2383 18.4017ZM27.109 18.4017C27.109 22.1765 24.0379 25.2477 20.263 25.2477C16.4881 25.2477 13.417 22.1765 13.417 18.4017C13.417 14.6267 16.4881 11.5556 20.263 11.5556C24.0379 11.5556 27.109 14.6267 27.109 18.4017Z" fill="black"/>
        <path d="M15.8047 18.4016C15.8047 20.8602 17.8049 22.8604 20.2635 22.8604C22.722 22.8604 24.7222 20.8602 24.7222 18.4016C24.7222 15.9431 22.722 13.9429 20.2635 13.9429C17.8049 13.9429 15.8047 15.943 15.8047 18.4016ZM23.5435 18.4016C23.5435 20.2103 22.072 21.6817 20.2635 21.6817C18.4549 21.6817 16.9834 20.2102 16.9834 18.4016C16.9834 16.593 18.4549 15.1216 20.2635 15.1216C22.072 15.1216 23.5435 16.593 23.5435 18.4016Z" fill="black"/>
        <path d="M31.2644 36.3444H28.5758L27.9706 31.5176C32.4609 28.869 35.4805 23.9818 35.4805 18.4018C35.4805 14.9271 34.3402 11.6556 32.1828 8.9411C31.9804 8.68627 31.6095 8.64391 31.3549 8.84641C31.1 9.04891 31.0577 9.41965 31.2602 9.67448C33.25 12.1783 34.3018 15.1961 34.3018 18.4018C34.3018 26.1424 28.0043 32.4399 20.2637 32.4399C12.5232 32.4399 6.22557 26.1425 6.22557 18.4018C6.22557 15.1824 7.34266 12.0372 9.37111 9.54554C11.2629 7.22162 13.8663 5.55361 16.7451 4.80891V6.9671C16.7451 7.96334 17.5556 8.77388 18.5519 8.77388H21.9754C22.9717 8.77388 23.7821 7.96334 23.7821 6.9671V4.80923C25.9491 5.36927 27.9662 6.45013 29.6424 7.95611C29.755 8.05724 29.8958 8.10706 30.0361 8.10706C30.1975 8.10706 30.3583 8.04113 30.4747 7.91155C30.6923 7.66945 30.6723 7.29682 30.4302 7.07931C28.5376 5.37901 26.2436 4.17933 23.7821 3.59604V3.51856C23.7822 1.57843 22.2038 0 20.2637 0C18.3236 0 16.7452 1.57843 16.7452 3.51856V3.59462C13.5071 4.36227 10.5716 6.20402 8.45707 8.80139C6.25802 11.5026 5.04688 14.9121 5.04688 18.4018C5.04688 23.9819 8.06645 28.869 12.5568 31.5177L11.9516 36.3445H9.41213C8.28789 36.3445 7.3733 37.2591 7.3733 38.3834V39.4107C7.3733 39.7361 7.63709 40 7.96265 40H8.76133C9.08689 40 9.35068 39.7361 9.35068 39.4107C9.35068 39.0852 9.08689 38.8213 8.76133 38.8213H8.552V38.3834C8.552 37.9091 8.93782 37.5232 9.41213 37.5232H31.2644C31.7387 37.5232 32.1245 37.9091 32.1245 38.3834V38.8213H11.1187C10.7932 38.8213 10.5294 39.0852 10.5294 39.4107C10.5294 39.7361 10.7932 40 11.1187 40H32.7139C33.0394 40 33.3032 39.7361 33.3032 39.4107V38.3834C33.3032 37.2591 32.3886 36.3444 31.2644 36.3444ZM17.9239 3.51856C17.9239 2.22836 18.9735 1.17869 20.2637 1.17869C21.5539 1.17869 22.6035 2.22836 22.6035 3.51856V6.9671C22.6035 7.3134 22.3218 7.59519 21.9755 7.59519H18.552C18.2057 7.59519 17.9239 7.3134 17.9239 6.9671V3.51856ZM13.6699 32.1145C15.6658 33.0782 17.9028 33.6186 20.2637 33.6186C22.6246 33.6186 24.8616 33.0782 26.8576 32.1145L27.388 36.3444H13.1395L13.6699 32.1145Z" fill="black"/>
    </g>
    <defs>
        <clipPath id="clip0">
            <rect width="40" height="40" fill="white" transform="translate(0.263672)"/>
        </clipPath>
    </defs>
</svg>
