<svg width="45" height="45" viewBox="0 0 45 45" fill="none" xmlns="http://www.w3.org/2000/svg">
<g clip-path="url(#clip0)">
<path d="M7.73047 38.6392H20.1055C20.4857 38.6392 20.793 38.3312 20.793 37.9517V35.2017C20.793 32.8635 19.1155 30.911 16.9017 30.4799C17.2977 30.064 17.6064 29.5662 17.8023 29.0142H20.1055C20.4857 29.0142 20.793 28.7062 20.793 28.3267V25.5767C20.793 25.1972 20.4857 24.8892 20.1055 24.8892H19.418C19.418 22.8218 18.2698 21.0185 16.5793 20.0794C16.637 19.8546 16.668 19.6229 16.668 19.3892C16.668 17.8725 15.4346 16.6392 13.918 16.6392C12.4013 16.6392 11.168 17.8725 11.168 19.3892C11.168 19.6229 11.1989 19.8546 11.2573 20.0794C9.56609 21.0185 8.41797 22.8212 8.41797 24.8892V25.0157C7.61978 25.3003 7.04297 26.0565 7.04297 26.9517C7.04297 28.0888 7.96834 29.0142 9.10547 29.0142H10.0336C10.2295 29.5662 10.5382 30.064 10.9342 30.4799C8.72047 30.911 7.04297 32.8635 7.04297 35.2017V37.9517C7.04297 38.3312 7.35028 38.6392 7.73047 38.6392ZM13.918 31.7642H15.9805L15.2187 32.7803L14.404 31.9656C14.27 31.8315 14.094 31.7642 13.918 31.7642C13.742 31.7642 13.566 31.8315 13.4319 31.9656L12.6172 32.7803L11.8555 31.7642H13.918ZM13.918 30.3892C12.4013 30.3892 11.168 29.1558 11.168 27.6392V26.2642H13.2305C14.3538 26.2642 15.3528 25.7224 15.9805 24.8871C16.175 25.1463 16.4095 25.3732 16.668 25.5684V27.6392H15.293V29.0142H16.2857C15.8086 29.8323 14.9313 30.3892 13.918 30.3892ZM19.418 27.6392H18.043V26.2642H19.418V27.6392ZM12.543 19.3892C12.543 18.6308 13.1597 18.0142 13.918 18.0142C14.6763 18.0142 15.293 18.6308 15.293 19.3892C15.293 19.4483 15.2778 19.506 15.2703 19.5645C14.8365 19.4538 14.3855 19.3892 13.918 19.3892C13.4505 19.3892 12.9995 19.4538 12.5657 19.5645C12.5581 19.506 12.543 19.449 12.543 19.3892ZM13.918 20.7642C16.153 20.7642 17.9783 22.551 18.0416 24.7709C17.242 24.487 16.668 23.7225 16.668 22.8267C16.668 22.4472 16.3607 22.1392 15.9805 22.1392C15.6003 22.1392 15.293 22.4472 15.293 22.8267C15.293 23.9638 14.3676 24.8892 13.2305 24.8892H9.79297C9.79297 22.6142 11.643 20.7642 13.918 20.7642ZM9.10547 27.6392C8.72597 27.6392 8.41797 27.3305 8.41797 26.9517C8.41797 26.5728 8.72597 26.2642 9.10547 26.2642H9.79297V27.6392H9.10547ZM8.41797 35.2017C8.41797 33.8315 9.22922 32.6558 10.3918 32.1038L11.993 34.2392C12.1126 34.3987 12.2948 34.4983 12.4942 34.5121C12.7011 34.5252 12.8881 34.4537 13.029 34.312L13.918 33.4238L14.8069 34.3127C14.9362 34.4427 15.1108 34.5142 15.293 34.5142C15.3088 34.5142 15.3253 34.5135 15.3418 34.5128C15.5405 34.4983 15.7233 34.3987 15.843 34.2398L17.4442 32.1045C18.6067 32.6558 19.418 33.8315 19.418 35.2017V37.2642H18.043V34.5142H16.668V37.2642H11.168V34.5142H9.79297V37.2642H8.41797V35.2017Z" fill="black"/>
<path d="M26.293 26.2642H22.168V27.6392H25.6055V40.0142H2.23047V27.6392H5.66797V26.2642H1.54297C1.16278 26.2642 0.855469 26.5722 0.855469 26.9517V40.7017C0.855469 41.0812 1.16278 41.3892 1.54297 41.3892H11.8555V42.7642H9.10547V44.1392H18.7305V42.7642H15.9805V41.3892H26.293C26.6732 41.3892 26.9805 41.0812 26.9805 40.7017V26.9517C26.9805 26.5722 26.6732 26.2642 26.293 26.2642ZM14.6055 42.7642H13.2305V41.3892H14.6055V42.7642Z" fill="black"/>
<path d="M43.3996 10.1272C43.2799 9.90372 43.0469 9.76416 42.7932 9.76416C41.6561 9.76416 40.7307 8.83879 40.7307 7.70166V7.01416C40.7307 3.9816 38.2632 1.51416 35.2307 1.51416C32.1981 1.51416 29.7307 3.9816 29.7307 7.01416V7.70166C29.7307 8.83879 28.8053 9.76416 27.6682 9.76416C27.4145 9.76416 27.1814 9.90372 27.0618 10.1272C26.9422 10.3506 26.9552 10.6215 27.0962 10.8325C27.9473 12.1099 29.2948 12.9404 30.7908 13.1473C29.3388 13.9772 28.3557 15.5378 28.3557 17.3267V20.0767C28.3557 20.4562 28.663 20.7642 29.0432 20.7642H41.4182C41.7984 20.7642 42.1057 20.4562 42.1057 20.0767V17.3267C42.1057 15.5378 41.1226 13.9772 39.6706 13.1473C41.1666 12.9411 42.5141 12.1106 43.3652 10.8325C43.5061 10.6222 43.5192 10.3506 43.3996 10.1272ZM35.2307 13.8892H37.2932L36.5314 14.9053L35.7167 14.0906C35.5827 13.9565 35.4067 13.8892 35.2307 13.8892C35.0547 13.8892 34.8787 13.9565 34.7446 14.0906L33.9299 14.9053L33.1682 13.8892H35.2307ZM37.9807 9.76416C37.9807 11.2808 36.7473 12.5142 35.2307 12.5142C33.7141 12.5142 32.4807 11.2808 32.4807 9.76416V8.38916C33.6041 8.38916 34.603 7.84741 35.2307 7.0121C35.8584 7.84741 36.8573 8.38916 37.9807 8.38916V9.76416ZM40.7307 17.3267V19.3892H39.3557V16.6392H37.9807V19.3892H32.4807V16.6392H31.1057V19.3892H29.7307V17.3267C29.7307 15.9565 30.5419 14.7808 31.7045 14.2288L33.3057 16.3642C33.4253 16.5237 33.6075 16.6233 33.8069 16.6371C34.0138 16.6502 34.2008 16.5787 34.3417 16.437L35.2307 15.5488L36.1196 16.4377C36.2489 16.5677 36.4235 16.6392 36.6057 16.6392C36.6215 16.6392 36.638 16.6385 36.6545 16.6378C36.8532 16.6233 37.0361 16.5237 37.1557 16.3648L38.7569 14.2295C39.9194 14.7808 40.7307 15.9565 40.7307 17.3267ZM38.9398 11.8267H38.7981C39.1501 11.2189 39.3557 10.5156 39.3557 9.76416V7.70166C39.3557 7.32216 39.0484 7.01416 38.6682 7.01416H37.9807C36.8436 7.01416 35.9182 6.08879 35.9182 4.95166C35.9182 4.57216 35.6109 4.26416 35.2307 4.26416C34.8505 4.26416 34.5432 4.57216 34.5432 4.95166C34.5432 6.08879 33.6178 7.01416 32.4807 7.01416H31.7932C31.413 7.01416 31.1057 7.32216 31.1057 7.70166V9.76416C31.1057 10.5156 31.3112 11.2189 31.6639 11.8267H31.5223C30.5708 11.8267 29.6688 11.4863 28.9641 10.8855C30.2188 10.3733 31.1057 9.13922 31.1057 7.70166V7.01416C31.1057 4.73922 32.9557 2.88916 35.2307 2.88916C37.5056 2.88916 39.3557 4.73922 39.3557 7.01416V7.70166C39.3557 9.13922 40.2426 10.3733 41.4973 10.8855C40.7933 11.4863 39.8906 11.8267 38.9398 11.8267Z" fill="black"/>
<path d="M21.4805 8.38916H28.3555V7.01416H21.4805C16.9313 7.01416 13.2305 10.715 13.2305 15.2642H14.6055C14.6055 11.4733 17.6896 8.38916 21.4805 8.38916Z" fill="black"/>
<path d="M35.2305 26.2642C35.2305 30.055 32.1463 33.1392 28.3555 33.1392V34.5142C32.9047 34.5142 36.6055 30.8133 36.6055 26.2642V22.1392H35.2305V26.2642Z" fill="black"/>
</g>
<defs>
<clipPath id="clip0">
<rect width="44" height="44" fill="white" transform="translate(0.167969 0.82666)"/>
</clipPath>
</defs>
</svg>
