<svg width="36" height="35" viewBox="0 0 36 35" fill="none" xmlns="http://www.w3.org/2000/svg">
<path d="M33.4531 28.3882H29.625V2.35693C29.625 2.06355 29.3804 1.82568 29.0781 1.82568H1.73438C1.4321 1.82568 1.1875 2.06355 1.1875 2.35693V31.0444C1.1875 32.509 2.41423 33.7007 3.92188 33.7007H31.2656C32.7733 33.7007 34 32.509 34 31.0444V28.9194C34 28.6261 33.7554 28.3882 33.4531 28.3882ZM5.5625 28.9194V31.0444C5.5625 31.9233 4.82657 32.6382 3.92188 32.6382C3.01718 32.6382 2.28125 31.9233 2.28125 31.0444V2.88818H28.5312V28.3882H6.10938C5.8071 28.3882 5.5625 28.6261 5.5625 28.9194ZM32.9062 31.0444C32.9062 31.9233 32.1703 32.6382 31.2656 32.6382H6.10831C6.45224 32.1938 6.65625 31.6418 6.65625 31.0444V29.4507H32.9062V31.0444Z" fill="black"/>
<path d="M12.6719 15.6382C12.6719 17.1028 13.8986 18.2944 15.4062 18.2944C16.9139 18.2944 18.1406 17.1028 18.1406 15.6382C18.1406 14.1736 16.9139 12.9819 15.4062 12.9819C13.8986 12.9819 12.6719 14.1736 12.6719 15.6382ZM17.0469 15.6382C17.0469 16.517 16.3109 17.2319 15.4062 17.2319C14.5016 17.2319 13.7656 16.517 13.7656 15.6382C13.7656 14.7593 14.5016 14.0444 15.4062 14.0444C16.3109 14.0444 17.0469 14.7593 17.0469 15.6382Z" fill="black"/>
<path d="M11.0312 8.20068H14.8594V9.82452C14.7883 9.83143 14.7212 9.83633 14.6442 9.84579C14.4487 9.86992 14.2821 9.99417 14.2073 10.1713L13.8067 11.1192C13.6145 11.1833 13.4276 11.2582 13.2471 11.3433L12.2756 10.9488C12.0946 10.8754 11.8852 10.9013 11.7298 11.0191C11.3266 11.3226 10.964 11.6748 10.6515 12.0665C10.5308 12.2177 10.5031 12.4203 10.5789 12.597L10.9853 13.5404C10.8977 13.7155 10.8203 13.8974 10.7541 14.0846L9.77835 14.4735C9.59623 14.5461 9.46859 14.7085 9.4435 14.8981C9.40718 15.1752 9.39062 15.4102 9.39062 15.6382C9.39062 15.8662 9.40718 16.1012 9.4435 16.3783C9.4686 16.5679 9.59624 16.7303 9.77835 16.8029L10.7541 17.1917C10.8203 17.3788 10.8972 17.5606 10.9848 17.7357L10.5789 18.6791C10.5031 18.8558 10.5308 19.0581 10.6515 19.2093C10.964 19.6016 11.3266 19.9541 11.7298 20.2573C11.8852 20.3743 12.0946 20.4008 12.2756 20.3276L13.2471 19.9331C13.4276 20.0181 13.6145 20.0931 13.8067 20.1572L14.2073 21.105C14.2821 21.2822 14.4487 21.4065 14.6442 21.4306C14.7209 21.44 14.7882 21.4447 14.8594 21.4515V23.0757H11.0312C10.729 23.0757 10.4844 23.3136 10.4844 23.6069V26.2632C10.4844 26.5566 10.729 26.7944 11.0312 26.7944H19.7812C20.0835 26.7944 20.3281 26.5566 20.3281 26.2632V23.6069C20.3281 23.3136 20.0835 23.0757 19.7812 23.0757H15.9531V21.4515C16.0243 21.4447 16.0916 21.44 16.1683 21.4306C16.3638 21.4064 16.5304 21.2822 16.6052 21.105L17.0058 20.1572C17.1985 20.0931 17.3855 20.0181 17.5654 19.9331L18.5369 20.3276C18.7174 20.4008 18.9268 20.3743 19.0827 20.2573C19.4859 19.9541 19.8485 19.6015 20.161 19.2093C20.2817 19.0581 20.3094 18.8555 20.2336 18.6791L19.8272 17.7357C19.9148 17.5609 19.9922 17.379 20.0584 17.1917L21.0342 16.8029C21.2163 16.7303 21.3439 16.5679 21.369 16.3782C21.4053 16.1012 21.4219 15.8662 21.4219 15.6382C21.4219 15.4102 21.4053 15.1752 21.369 14.8981C21.3439 14.7085 21.2163 14.5461 21.0342 14.4735L20.0584 14.0846C19.9922 13.8976 19.9153 13.7158 19.8277 13.5407L20.2336 12.5972C20.3094 12.4206 20.2817 12.2183 20.161 12.067C19.8485 11.6748 19.4859 11.3223 19.0827 11.0191C18.9268 10.9013 18.7174 10.8753 18.5369 10.9488L17.5654 11.3433C17.3849 11.2582 17.198 11.1833 17.0058 11.1192L16.6052 10.1713C16.5304 9.99416 16.3638 9.86991 16.1683 9.84579C16.0913 9.83633 16.0242 9.83143 15.9531 9.82452V8.20068H19.7812C20.0835 8.20068 20.3281 7.96282 20.3281 7.66943V5.01318C20.3281 4.7198 20.0835 4.48193 19.7812 4.48193H11.0312C10.729 4.48193 10.4844 4.7198 10.4844 5.01318V7.66943C10.4844 7.96282 10.729 8.20068 11.0312 8.20068ZM19.2344 25.7319H11.5781V24.1382H19.2344V25.7319ZM16.4482 12.0626C16.7398 12.143 17.017 12.2543 17.2728 12.3931C17.4196 12.4727 17.5953 12.4821 17.7508 12.4198L18.6544 12.0528C18.8109 12.1869 18.9588 12.3308 19.0971 12.4831L18.7195 13.3607C18.6549 13.5114 18.6651 13.6826 18.7468 13.825C18.8899 14.0727 19.0042 14.3422 19.087 14.6263C19.1324 14.7832 19.2499 14.9111 19.4053 14.9731L20.3158 15.336C20.3244 15.4423 20.3281 15.5417 20.3281 15.6382C20.3281 15.7347 20.3244 15.834 20.3158 15.9404L19.4053 16.3033C19.2499 16.3653 19.1324 16.4932 19.087 16.6501C19.0037 16.9344 18.8894 17.2039 18.7468 17.4506C18.6645 17.5933 18.6544 17.765 18.719 17.9157L19.0971 18.7933C18.9588 18.9458 18.8109 19.0895 18.6544 19.2236L17.7508 18.8566C17.5954 18.794 17.4191 18.8036 17.2723 18.8835C17.018 19.0221 16.7409 19.1331 16.4482 19.2138C16.2864 19.2581 16.155 19.3722 16.0915 19.5232L15.7176 20.4078C15.4986 20.4233 15.3139 20.4233 15.0949 20.4078L14.7211 19.5232C14.6575 19.3722 14.5261 19.2581 14.3643 19.2138C14.0727 19.1333 13.7955 19.0221 13.5397 18.8833C13.3929 18.8036 13.2172 18.794 13.0618 18.8566L12.1581 19.2236C12.0017 19.0895 11.8537 18.9455 11.7154 18.7933L12.093 17.9157C12.1576 17.765 12.1474 17.5938 12.0657 17.4514C11.9226 17.2037 11.8083 16.9342 11.7255 16.6501C11.6801 16.4932 11.5627 16.3653 11.4072 16.3033L10.4967 15.9404C10.4881 15.834 10.4844 15.7347 10.4844 15.6382C10.4844 15.5417 10.4881 15.4423 10.4967 15.336L11.4072 14.9731C11.5626 14.9111 11.6801 14.7832 11.7255 14.6263C11.8088 14.342 11.9231 14.0724 12.0657 13.8258C12.148 13.6831 12.1581 13.5116 12.0935 13.3607L11.7154 12.4828C11.8537 12.3306 12.0016 12.1869 12.1581 12.0528L13.0617 12.4198C13.2171 12.4821 13.3928 12.4727 13.5397 12.3931C13.7955 12.2543 14.0727 12.143 14.3643 12.0626C14.5261 12.0183 14.6575 11.9041 14.721 11.7532L15.0949 10.8686C15.3138 10.853 15.4986 10.853 15.7176 10.8686L16.0914 11.7532C16.155 11.9041 16.2864 12.0183 16.4482 12.0626ZM11.5781 5.54443H19.2344V7.13818H11.5781V5.54443Z" fill="black"/>
<path d="M21.7539 11.4788C22.6042 12.6977 23.0629 14.1333 23.0629 15.6381C23.0629 17.6246 22.2666 19.4922 20.8204 20.8972L21.5937 21.6484C23.2466 20.043 24.1566 17.9084 24.1566 15.6381C24.1566 13.7704 23.5319 11.9996 22.3931 10.5347H23.5275V9.47217H21.207C20.9048 9.47217 20.6602 9.71004 20.6602 10.0034V12.2573H21.7539V11.4788Z" fill="black"/>
<path d="M7.28537 20.7416V21.8041H9.60585C9.90812 21.8041 10.1527 21.5663 10.1527 21.2729V19.019H9.05897V19.7975C8.20876 18.5786 7.75 17.143 7.75 15.6382C7.75 13.6517 8.54628 11.7841 9.99251 10.3791L9.2192 9.62793C7.56628 11.2334 6.65625 13.3679 6.65625 15.6382C6.65625 17.5059 7.281 19.2767 8.41981 20.7416H7.28537Z" fill="black"/>
</svg>
