<svg width="34" height="35" viewBox="0 0 34 35" fill="none" xmlns="http://www.w3.org/2000/svg">
<g clip-path="url(#clip0)">
<path d="M28.2637 3.76318H0.763672V32.0965H33.7637V3.76318H28.2637ZM5.16367 30.9632H1.86367V27.5632H5.16367V30.9632ZM5.16367 26.4298H1.86367V23.0299H5.16367V26.4298ZM5.16367 21.8965H1.86367V18.4965H5.16367V21.8965ZM5.16367 17.3632H1.86367V13.9632H5.16367V17.3632ZM5.16367 12.8299H1.86367V9.42985H5.16367V12.8299ZM5.16367 8.29652H1.86367V4.89652H5.16367V8.29652ZM28.2637 30.9632H6.26367V4.89652H28.2637V30.9632ZM32.6637 30.9632H29.3637V27.5632H32.6637V30.9632ZM32.6637 26.4298H29.3637V23.0299H32.6637V26.4298ZM32.6637 21.8965H29.3637V18.4965H32.6637V21.8965ZM32.6637 17.3632H29.3637V13.9632H32.6637V17.3632ZM32.6637 12.8299H29.3637V9.42985H32.6637V12.8299ZM32.6637 8.29652H29.3637V4.89652H32.6637V8.29652Z" fill="black"/>
<path d="M21.5925 17.6464C21.5439 17.5588 21.4733 17.4862 21.3883 17.436L13.6883 12.9027C13.4253 12.7462 13.0889 12.8391 12.937 13.1101C12.8882 13.1971 12.8628 13.2958 12.8633 13.3962V22.4629C12.8635 22.6651 12.9683 22.8519 13.1383 22.9531C13.3084 23.0543 13.5181 23.0543 13.6883 22.9531L21.3883 18.4197C21.6519 18.2643 21.7434 17.9182 21.5925 17.6464ZM13.9633 21.486V14.3732L20.0045 17.9296L13.9633 21.486Z" fill="black"/>
</g>
<defs>
<clipPath id="clip0">
<rect width="33" height="34" fill="white" transform="translate(0.763672 0.929688)"/>
</clipPath>
</defs>
</svg>
