<svg width="26" height="26" viewBox="0 0 26 26" fill="none" xmlns="http://www.w3.org/2000/svg">
    <g clip-path="url(#clip0)">
        <path d="M12.6068 5.81833C13.2547 5.81833 13.78 5.29305 13.78 4.64515C13.78 3.46586 14.7395 2.50652 15.9186 2.50652H19.2315C19.8794 2.50652 20.4047 1.98124 20.4047 1.33334C20.4047 0.685428 19.8794 0.160156 19.2315 0.160156H15.9186C13.4455 0.160156 11.4336 2.17208 11.4336 4.64515C11.4336 5.2929 11.9589 5.81833 12.6068 5.81833Z" fill="white"/>
        <path d="M18.9798 9.4873H6.98177C6.33387 9.4873 5.80859 10.0126 5.80859 10.6605C5.80859 11.3084 6.33387 11.8337 6.98177 11.8337H11.4336V23.987C11.4336 24.6349 11.9589 25.1602 12.6068 25.1602C13.2547 25.1602 13.78 24.6349 13.78 23.987V11.8337H18.98C19.6279 11.8337 20.1531 11.3084 20.1531 10.6605C20.1531 10.0126 19.6277 9.4873 18.9798 9.4873Z" fill="white"/>
    </g>
    <defs>
        <clipPath id="clip0">
            <rect width="25" height="25" fill="white" transform="translate(0.607422 0.160156)"/>
        </clipPath>
    </defs>
</svg>
