<svg width="26" height="26" viewBox="0 0 26 26" fill="none" xmlns="http://www.w3.org/2000/svg">
    <g clip-path="url(#clip0)">
        <path d="M18.7081 0.160156H7.50633C3.70227 0.160156 0.607422 3.25516 0.607422 7.05921V18.261C0.607422 22.0652 3.70227 25.16 7.50633 25.16H18.7081C22.5124 25.16 25.6073 22.065 25.6073 18.261V7.05921C25.6074 3.25516 22.5124 0.160156 18.7081 0.160156ZM23.3893 18.261C23.3893 20.8421 21.2894 22.9419 18.7082 22.9419H7.50633C4.92534 22.942 2.82553 20.8421 2.82553 18.261V7.05921C2.82553 4.47822 4.92534 2.37826 7.50633 2.37826H18.7081C21.2892 2.37826 23.3892 4.47822 23.3892 7.05921V18.261H23.3893Z" fill="white"/>
        <path d="M13.1078 6.21875C9.55577 6.21875 6.66602 9.1085 6.66602 12.6606C6.66602 16.2125 9.55577 19.1021 13.1078 19.1021C16.6599 19.1021 19.5497 16.2125 19.5497 12.6606C19.5497 9.1085 16.6599 6.21875 13.1078 6.21875ZM13.1078 16.8839C10.779 16.8839 8.88412 14.9893 8.88412 12.6604C8.88412 10.3314 10.7788 8.43671 13.1078 8.43671C15.4369 8.43671 17.3316 10.3314 17.3316 12.6604C17.3316 14.9893 15.4367 16.8839 13.1078 16.8839Z" fill="white"/>
        <path d="M19.82 4.3374C19.3926 4.3374 18.9728 4.51041 18.671 4.81356C18.3677 5.11522 18.1934 5.53518 18.1934 5.96402C18.1934 6.39152 18.3679 6.81133 18.671 7.11447C18.9727 7.41614 19.3926 7.59063 19.82 7.59063C20.2488 7.59063 20.6673 7.41614 20.9704 7.11447C21.2736 6.81133 21.4466 6.39137 21.4466 5.96402C21.4466 5.53518 21.2736 5.11522 20.9704 4.81356C20.6688 4.51041 20.2488 4.3374 19.82 4.3374Z" fill="white"/>
    </g>
    <defs>
        <clipPath id="clip0">
            <rect width="25" height="25" fill="white" transform="translate(0.607422 0.160156)"/>
        </clipPath>
    </defs>
</svg>
