<svg width="26" height="26" viewBox="0 0 26 26" fill="none" xmlns="http://www.w3.org/2000/svg">
    <g clip-path="url(#clip0)">
        <path d="M3.6122 0.168457C1.95172 0.168457 0.607691 1.5149 0.607422 3.17163C0.607422 4.82997 1.95145 6.17614 3.61247 6.17614C5.26893 6.17614 6.61484 4.82997 6.61484 3.17163C6.61484 1.51463 5.26866 0.168457 3.6122 0.168457Z" fill="white"/>
        <path d="M6.20087 8.45557H1.01953V25.126H6.20087V8.45557Z" fill="white"/>
        <path d="M19.3923 8.04102C16.8719 8.04102 15.1819 9.42292 14.4901 10.7334H14.4208V8.45553H9.45144H9.45117V25.1257H14.6279V16.8789C14.6279 14.7047 15.0419 12.5988 17.7375 12.5988C20.3944 12.5988 20.4298 15.0854 20.4298 17.0183V25.1254H25.6074V15.9819C25.6074 11.4936 24.639 8.04102 19.3923 8.04102Z" fill="white"/>
    </g>
    <defs>
        <clipPath id="clip0">
            <rect width="25" height="25" fill="white" transform="translate(0.607422 0.147461)"/>
        </clipPath>
    </defs>
</svg>
