<svg width="26" height="26" viewBox="0 0 26 26" fill="none" xmlns="http://www.w3.org/2000/svg">
    <g clip-path="url(#clip0)">
        <path d="M25.4391 5.50372C25.1422 5.07589 24.5542 4.96947 24.126 5.26647L21.1965 7.29918C20.9305 7.48373 20.7778 7.7918 20.7917 8.11521C20.8002 8.30919 20.8043 8.49109 20.8043 8.67122C20.8043 14.6594 16.2478 20.8532 8.6225 20.8532C7.06806 20.8532 5.54092 20.5573 4.11366 19.9866L8.63458 18.7221C9.13637 18.5817 9.42935 18.0611 9.28896 17.5594C9.14858 17.0577 8.62854 16.7646 8.12625 16.905L1.29674 18.8153C0.938731 18.9154 0.672927 19.2164 0.617829 19.5841C0.562857 19.9517 0.72878 20.3175 1.04176 20.5182C3.30907 21.9717 5.9305 22.7402 8.6225 22.7402C13.913 22.7402 17.2266 20.2407 19.0749 18.1439C21.3731 15.5365 22.6912 12.0839 22.6912 8.67135C22.6912 8.63399 22.6911 8.59663 22.6908 8.55914L25.2018 6.81689C25.6298 6.51976 25.7361 5.93193 25.4391 5.50372Z" fill="white"/>
        <path d="M2.68902 5.20956L12.1972 10.0294C12.332 10.0978 12.4782 10.1314 12.6236 10.1314C12.8307 10.1314 13.0365 10.0633 13.2059 9.93037C13.4944 9.70419 13.6257 9.33146 13.5427 8.97433C13.4797 8.70337 13.4478 8.42134 13.4478 8.13629C13.4478 6.11314 15.0941 4.46712 17.1176 4.46712C18.1292 4.46712 19.1057 4.88941 19.7966 5.62581C20.0547 5.90105 20.4521 5.99577 20.8068 5.86696L23.7413 4.80073C24.2311 4.62273 24.4839 4.08156 24.3059 3.59184C24.128 3.102 23.5864 2.84953 23.097 3.02728L20.7091 3.89488C19.7116 3.05307 18.4343 2.58008 17.1176 2.58008C14.2332 2.58008 11.855 4.78915 11.5862 7.60405L3.54216 3.52656C3.07735 3.29082 2.50964 3.47674 2.27403 3.94143C2.03842 4.40624 2.22421 4.97395 2.68902 5.20956Z" fill="white"/>
        <path d="M2.20437 10.8591L4.29356 11.4359C4.3776 11.4591 4.462 11.4701 4.54515 11.4701C4.95889 11.4701 5.33854 11.1957 5.45402 10.7775C5.59277 10.2753 5.29791 9.75563 4.79574 9.61688L2.70654 9.04011C2.20462 8.90149 1.68471 9.1961 1.54596 9.6984C1.40734 10.2008 1.70207 10.7204 2.20437 10.8591Z" fill="white"/>
        <path d="M4.03462 13.6675C3.51396 13.6873 3.10789 14.1253 3.12764 14.646C3.14689 15.1546 3.56516 15.5537 4.06984 15.5537C4.08192 15.5537 4.094 15.5535 4.10607 15.5531L6.18948 15.4741C6.71014 15.4543 7.11621 15.0163 7.09658 14.4955C7.07683 13.9749 6.63769 13.5693 6.11815 13.5885L4.03462 13.6675Z" fill="white"/>
    </g>
    <defs>
        <clipPath id="clip0">
            <rect width="25" height="25" fill="white" transform="translate(0.607422 0.160156)"/>
        </clipPath>
    </defs>
</svg>
