<svg width="25" height="25" viewBox="0 0 25 25" fill="none" xmlns="http://www.w3.org/2000/svg">
    <path fill-rule="evenodd" clip-rule="evenodd" d="M19.0938 22.9629C20.1938 22.9629 21.0938 22.0629 21.0938 20.9629V6.96289C21.0938 5.86289 20.1938 4.96289 19.0938 4.96289H18.0938V2.96289H16.0938V4.96289H8.09375V2.96289H6.09375V4.96289H5.09375C3.98375 4.96289 3.10375 5.86289 3.10375 6.96289L3.09375 20.9629C3.09375 22.0629 3.98375 22.9629 5.09375 22.9629H19.0938ZM9.09375 13.9629V11.9629H7.09375V13.9629H9.09375ZM5.09375 8.96289H19.0938V6.96289H5.09375V8.96289ZM19.0938 10.9629V20.9629H5.09375V10.9629H19.0938ZM17.0938 13.9629V11.9629H15.0938V13.9629H17.0938ZM13.0938 13.9629H11.0938V11.9629H13.0938V13.9629Z" fill="white" fill-opacity="0.54"/>
</svg>
